<?xml version="1.0" standalone="yes"?>
<!DOCTYPE svg PUBLIC "-//W3C//DTD SVG 1.1//EN"
 "http://www.w3.org/Graphics/SVG/1.1/DTD/svg11.dtd">
<svg xmlns="http://www.w3.org/2000/svg" version="1.1"
  width="100%" height="100%" viewBox="0 0 1024 768"
  style="fill: none; font-family: Helvetica;
 font: Helvetica;
">

<!-- Creator: NGspice -->

<rect x="0" y="0" width="1024" height="768" fill="black" stroke="none"/>
<text stroke="none" fill="white" font-size="16" x="358" y="752">
time
</text>
<text stroke="none" fill="white" font-size="16" x="10" y="16">
tran1: ** sch_path: /foss/designs/analog-circuit-design/priyanka/tb_telescopic_tran.sch
</text>
<path stroke="white" d="M70 720l0 -672"/>
<text stroke="none" fill="white" font-size="16" x="55" y="728">
0.0
</text>
<path stroke="white" stroke-dasharray="1,2" d="M180 720l0 -672"/>
<text stroke="none" fill="white" font-size="16" x="165" y="728">
2.0
</text>
<path stroke="white" stroke-dasharray="1,2" d="M290 720l0 -672"/>
<text stroke="none" fill="white" font-size="16" x="275" y="728">
4.0
</text>
<path stroke="white" stroke-dasharray="1,2" d="M400 720l0 -672"/>
<text stroke="none" fill="white" font-size="16" x="385" y="728">
6.0
</text>
<path stroke="white" stroke-dasharray="1,2" d="M510 720l0 -672"/>
<text stroke="none" fill="white" font-size="16" x="495" y="728">
8.0
</text>
<path stroke="white" stroke-dasharray="1,2" d="M620 720l0 -672"/>
<text stroke="none" fill="white" font-size="16" x="600" y="728">
10.0
</text>
<path stroke="white" stroke-dasharray="1,2" d="M730 720l0 -672"/>
<text stroke="none" fill="white" font-size="16" x="710" y="728">
12.0
</text>
<path stroke="white" stroke-dasharray="1,2" d="M840 720l0 -672"/>
<text stroke="none" fill="white" font-size="16" x="820" y="728">
14.0
</text>
<path stroke="white" stroke-dasharray="1,2" d="M950 720l0 -672"/>
<text stroke="none" fill="white" font-size="16" x="930" y="728">
16.0
</text>
<text stroke="none" fill="white" font-size="16" x="614" y="752">
us
</text>
<path stroke="white" d="M70 720l880 0"/>
<text stroke="none" fill="white" font-size="16" x="38" y="728">
0.0
</text>
<path stroke="white" stroke-dasharray="1,2" d="M70 636l880 0"/>
<text stroke="none" fill="white" font-size="16" x="18" y="644">
100.0
</text>
<path stroke="white" stroke-dasharray="1,2" d="M70 552l880 0"/>
<text stroke="none" fill="white" font-size="16" x="18" y="560">
200.0
</text>
<path stroke="white" stroke-dasharray="1,2" d="M70 468l880 0"/>
<text stroke="none" fill="white" font-size="16" x="18" y="476">
300.0
</text>
<path stroke="white" stroke-dasharray="1,2" d="M70 384l880 0"/>
<text stroke="none" fill="white" font-size="16" x="18" y="392">
400.0
</text>
<path stroke="white" stroke-dasharray="1,2" d="M70 300l880 0"/>
<text stroke="none" fill="white" font-size="16" x="18" y="308">
500.0
</text>
<path stroke="white" stroke-dasharray="1,2" d="M70 216l880 0"/>
<text stroke="none" fill="white" font-size="16" x="18" y="224">
600.0
</text>
<path stroke="white" stroke-dasharray="1,2" d="M70 132l880 0"/>
<text stroke="none" fill="white" font-size="16" x="18" y="140">
700.0
</text>
<path stroke="white" stroke-dasharray="1,2" d="M70 48l880 0"/>
<text stroke="none" fill="white" font-size="16" x="18" y="56">
800.0
</text>
<text stroke="none" fill="white" font-size="16" x="10" y="32">
mV
</text>
<path stroke="red" d="M440 23l44 0"/>
<text stroke="none" fill="white" font-size="16" x="494" y="32">
v_out
</text>
<path stroke="red" d="M70 720l0 -4 1 -1 0 -15 1 -6 0 -21 1 -6 0 -14 1 -7 0 -20 1 -7 0 -20 1 -7 0 -14 1 -6 0 -21 1 -6 0 -14 1 -7 0 -20 1 -6 0 -20 1 -7 0 -13 1 -6 0 -20 1 -6 0 -18 1 -6 0 -12 1 -5 0 -17 1 -5 0 -15 1 -5 0 -10 1 -5 0 -13 1 -4 0 -9"/>
<path stroke="red" d="M89 302l1 -4 0 -12 1 -3 0 -11 1 -4 0 -6 1 -3 0 -10 1 -3 0 -9 1 -2 0 -6 1 -3 0 -7 1 -3 0 -7 1 -3 0 -4 1 -2 0 -7 1 -2 0 -4 1 -2 0 -6 1 -2 0 -6 1 -2 0 -4 1 -2 0 -5 1 -1 0 -5 1 -1 0 -3 1 -1 0 -4 1 -1 0 -3 1 -1 0 -3 1 -1 0 -2"/>
<path stroke="red" d="M110 132l1 -1 0 -2 1 -1 0 -2 1 -1 0 -2 1 -1 0 -1 1 0 0 -2 1 -1 0 -1 1 -1 0 -1 1 0 0 -1 1 -1 0 -1 1 0 0 -1 1 0 0 -1 1 0 0 -1 1 0 0 -1 1 0 0 -1 1 0 0 -1 1 0 0 -1 2 0 0 -1 2 0 0 -1 2 0 0 -1 3 0 0 -1 4 0 0 -1 6 0 0 -1 17 0 0 -1"/>
<path stroke="red" d="M162 98l733 0"/>
</svg>
