<svg xmlns="http://www.w3.org/2000/svg" xmlns:xlink="http://www.w3.org/1999/xlink" xmlns:lucid="lucid" width="2760" height="1042.06"><g transform="translate(1701.5 361.5)" lucid:page-tab-id="0_0"><path d="M-2000-500h3500v1500h-3500z" fill="#fff"/><path d="M-1440-354a6 6 0 0 1 6-6H814a6 6 0 0 1 6 6V673.06a6 6 0 0 1-6 6h-2248a6 6 0 0 1-6-6z" stroke="#000" stroke-width="3" fill="#fff"/><use xlink:href="#a" transform="matrix(1,0,0,1,-1428,-348) translate(0 32)"/><path d="M-1700 63.17a6 6 0 0 1 6-6h148a6 6 0 0 1 6 6v108a6 6 0 0 1-6 6h-148a6 6 0 0 1-6-6z" stroke="#3a414a" stroke-width="3" fill="#fff"/><path d="M0-134a6 6 0 0 1 6-6h468a6 6 0 0 1 6 6v448a6 6 0 0 1-6 6H6a6 6 0 0 1-6-6z" fill="#fff"/><path d="M64.5-140h117m29.25 0h58.5m29.25 0h117m29.25 0H474l.94.07.9.22.88.35.8.5.72.6.6.72.5.8.37.88.23.9.07.95v28m0 28V34m0 28v56m0 28v112m0 28v28l-.07.94-.22.9-.35.88-.5.8-.6.72-.72.6-.8.5-.88.37-.9.23-.95.07h-29.25m-29.25 0h-117m-29.25 0h-58.5m-29.25 0h-117m-29.25 0H6l-.94-.07-.9-.22-.88-.35-.8-.5-.72-.6-.6-.72-.5-.8-.37-.88-.23-.9L0 314v-28m0-28V146m0-28V62m0-28V-78m0-28v-28l.07-.94.22-.9.35-.88.5-.8.6-.72.72-.6.8-.5.88-.37.9-.23L6-140h29.25" stroke="#00c2a8" stroke-width="5" fill="none"/><use xlink:href="#b" transform="matrix(1,0,0,1,12,-128) translate(0 32)"/><use xlink:href="#c" transform="matrix(1,0,0,1,12,-128) translate(121.77777777777777 32)"/><use xlink:href="#d" transform="matrix(1,0,0,1,12,-128) translate(221.33333333333334 32)"/><path d="M-1080-154a6 6 0 0 1 6-6h988a6 6 0 0 1 6 6v487.06a6 6 0 0 1-6 6h-988a6 6 0 0 1-6-6z" fill="#fff"/><path d="M-1023.33-160h50.66m25.34 0h50.66m25.34 0h50.66m25.34 0h50.66m25.34 0h50.66m25.34 0h50.66m25.34 0h50.66m25.34 0h50.66m25.34 0h50.66m25.34 0h50.66m25.34 0h50.66m25.34 0h50.66m25.34 0H-86l.94.07.9.22.88.35.8.5.72.6.6.72.5.8.37.88.23.9.07.95v27.06m0 27.06v54.1m0 27.07v54.1m0 27.07v54.12m0 27.05v54.1m0 27.07v54.12m0 27.06v27.06l-.07.94-.22.9-.35.88-.5.8-.6.72-.72.6-.8.5-.88.36-.9.22-.95.08h-25.33m-25.34 0h-50.66m-25.34 0h-50.66m-25.34 0h-50.66m-25.34 0h-50.66m-25.34 0h-50.66m-25.34 0h-50.66m-25.34 0h-50.66m-25.34 0h-50.66m-25.34 0h-50.66m-25.34 0h-50.66m-25.34 0h-50.66m-25.34 0h-50.66m-25.34 0H-1074l-.94-.08-.9-.22-.88-.36-.8-.5-.72-.6-.6-.72-.5-.8-.37-.87-.23-.9-.07-.94V306m0-27.06v-54.12m0-27.06v-54.1m0-27.07V62.46m0-27.06v-54.1m0-27.07v-54.1m0-27.07V-154l.07-.94.22-.9.35-.88.5-.8.6-.72.72-.6.8-.5.88-.37.9-.23.95-.07h25.33" stroke="#cc4e00" stroke-width="5" fill="none"/><use xlink:href="#e" transform="matrix(1,0,0,1,-1068,-148) translate(0 32)"/><path d="M-1440-94a6 6 0 0 1 6-6h88a6 6 0 0 1 6 6v368a6 6 0 0 1-6 6h-88a6 6 0 0 1-6-6z" stroke="#3a414a" stroke-width="3" fill="#fff"/><use xlink:href="#f" transform="matrix(1,0,0,1,-1428,-88) translate(25.080246913580247 147.26388888888889)"/><use xlink:href="#g" transform="matrix(1,0,0,1,-1428,-88) translate(26.80864197530864 184.59722222222223)"/><use xlink:href="#h" transform="matrix(1,0,0,1,-1428,-88) translate(27.629629629629626 221.93055555555557)"/><path d="M-1020 6a6 6 0 0 1 6-6h208a6 6 0 0 1 6 6v168a6 6 0 0 1-6 6h-208a6 6 0 0 1-6-6z" stroke="#3a414a" stroke-width="3" fill="#fff"/><use xlink:href="#i" transform="matrix(1,0,0,1,-1008,12) translate(-7.722222222222257 68.22222222222223)"/><use xlink:href="#j" transform="matrix(1,0,0,1,-1008,12) translate(40.96296296296295 97.55555555555556)"/><path d="M-1337.5 90h39" stroke="#5e5e5e" stroke-width="2" fill="none"/><path d="M-1337.47 90.97h-1.03v-1.94h1.03z" stroke="#5e5e5e" stroke-width=".05" fill="#5e5e5e"/><path d="M-1283.24 90l-14.26 4.64v-9.28z" stroke="#5e5e5e" stroke-width="2" fill="#5e5e5e"/><path d="M-1078.5 90h36.38" stroke="#5e5e5e" stroke-width="3" fill="none"/><path d="M-1078.46 91.47h-1.54v-2.94h1.54z" stroke="#5e5e5e" stroke-width=".05" fill="#5e5e5e"/><path d="M-1026.35 90l-14.27 4.64v-9.28z" stroke="#5e5e5e" stroke-width="3" fill="#5e5e5e"/><path d="M-1280-10v200h40V-10z" fill="none"/><path d="M-1260-10l160 100-160 100z" stroke="#3a414a" stroke-width="3" fill="#fff"/><path d="M-1104 90h24M-1280 90h24" stroke="#3a414a" stroke-width="3" fill="none"/><use xlink:href="#k" transform="matrix(1,0,0,1,-1280,-10) translate(67.20253086419753 107.05555555555556)"/><path d="M-700 6a6 6 0 0 1 6-6h208a6 6 0 0 1 6 6v168a6 6 0 0 1-6 6h-208a6 6 0 0 1-6-6z" stroke="#3a414a" stroke-width="3" fill="#fff"/><path d="M-685.76 51.35h191.52v82.47h-191.52z" fill="#fff" fill-opacity="0"/><path d="M-673.15 114.08l11.25-45.14c1.24-4.95 4.2-13.5 11.63-13.5 2.48 0 4.02 1.3 4.02 2.8 0 2.04-1.48 3.64-3.22 3.64-.92 0-1.9-.43-1.9-1.48 0-1.6 1.1-1.98 1.1-2.53 0-.3-.25-.5-.68-.5-3.1 0-4.64 4.45-6.25 10.95l-11.3 45.4c-1.25 5-4.34 12.48-11.27 12.48-2.47 0-4.02-1.3-4.02-2.78 0-2.05 1.5-3.65 3.23-3.65.93 0 1.92.55 1.92 1.6 0 1.8-1.12 1.74-1.12 2.42 0 .3.25.48.68.48 2.92 0 4.4-3.96 5.95-10.2M-603.33 64.98l-9.22 36.98c-.06.18-.12.55-.12.74 0 .37.3.56.93.56 1.23 0 2.97-2.17 3.83-3.47l.67.73c-1.85 2.8-5.13 6.5-8.04 6.5-1.98 0-2.47-1.42-2.47-2.54 0-1.24.12-2.1.62-3.97h-.3c-4.6 5.76-8.3 6.5-10.6 6.5-4.5 0-5.43-4.58-5.43-7.86 0-6.36 6.37-20.16 15.9-20.16 3.52.02 4.94 1.62 5 3.1h.13l3.27-12.92c.07-.25.13-.5.13-.74 0-.8-.44-1.24-2.04-1.24-.56 0-1.24.13-1.67.2l-.25-.94m-.5 18.8c0-2.9-.92-4.4-3.46-4.4-6.12 0-11.13 12.38-11.13 18.3 0 3.05 1.73 4.1 3.47 4.1 4.32 0 8.4-5.82 10.14-11.5.68-2.17 1-4.58 1-6.5M-585.52 79.2l-.62 2.35h-4.33l-4.82 19.8c-.06.18-.12.48-.12.67 0 .37.2.74 1 .74 0 0 1.4-.12 3.7-3.2l.8.67c-1.48 1.9-4.57 6.6-8.22 6.6-1.9 0-2.4-1.53-2.4-3.2 0-.8.1-1.6.3-2.3l5-19.78h-4.75l.32-1.8c4.63-.86 8.4-3.15 10.94-8.53h.8l-1.9 7.98h4.32M-556.2 117.97h-4.1V63.62h4.1v54.35M-495.8 93.67l-1.72 12.62h-33.52v-.94l16.5-19.1-16.5-19.98v-.93h32.52v9.96h-1.54c-.93-6.3-3.83-7.6-9.28-7.6h-12.86l13.1 15.9-14.64 16.8h19.17c4.76 0 6.43-2.03 7.35-6.73h1.43"/><path d="M-797 90h74.88" stroke="#5e5e5e" stroke-width="3" fill="none"/><path d="M-796.96 91.47h-1.54v-2.94h1.54z" stroke="#5e5e5e" stroke-width=".05" fill="#5e5e5e"/><path d="M-706.35 90l-14.27 4.64v-9.28z" stroke="#5e5e5e" stroke-width="3" fill="#5e5e5e"/><path d="M-1660 97.17h80v40h-80z" fill="none"/><path d="M-1660 117.17c0-11.2 8.8-20 20-20s20 8.8 20 20m0 0c0 11.2 8.8 20 20 20s20-8.8 20-20" stroke="#3a414a" stroke-width="7" fill="none"/><path d="M-1537 117.17h46.53a.47.47 0 0 0 .47-.48.47.47 0 0 1 .47-.48h27.4" stroke="#5e5e5e" stroke-width="3" fill="none"/><path d="M-1536.96 118.64h-1.54v-2.95h1.54z" stroke="#5e5e5e" stroke-width=".05" fill="#5e5e5e"/><path d="M-1446.35 116.22l-14.27 4.64v-9.28z" stroke="#5e5e5e" stroke-width="3" fill="#5e5e5e"/><path d="M-360 6a6 6 0 0 1 6-6h188a6 6 0 0 1 6 6v168a6 6 0 0 1-6 6h-188a6 6 0 0 1-6-6z" stroke="#3a414a" stroke-width="3" fill="#fff"/><use xlink:href="#l" transform="matrix(1,0,0,1,-348,12) translate(17.777777777777786 65.20833333333334)"/><use xlink:href="#m" transform="matrix(1,0,0,1,-348,12) translate(51.85185185185185 97.20833333333334)"/><path d="M-477 90h94.88" stroke="#5e5e5e" stroke-width="3" fill="none"/><path d="M-476.96 91.47h-1.54v-2.94h1.54z" stroke="#5e5e5e" stroke-width=".05" fill="#5e5e5e"/><path d="M-366.35 90l-14.27 4.64v-9.28z" stroke="#5e5e5e" stroke-width="3" fill="#5e5e5e"/><path d="M-663 270h-241a6 6 0 0 1-6-6v-61.88" stroke="#5e5e5e" stroke-width="3" fill="none"/><path d="M-661.5 271.48h-1.54v-2.96h1.54z" stroke="#5e5e5e" stroke-width=".05" fill="#5e5e5e"/><path d="M-910 186.35l4.63 14.27h-9.26z" stroke="#5e5e5e" stroke-width="3" fill="#5e5e5e"/><path d="M-157 90h32.5a6 6 0 0 1 6 6v168a6 6 0 0 1-6 6h-373.38" stroke="#5e5e5e" stroke-width="3" fill="none"/><path d="M-156.96 91.47h-1.54v-2.94h1.54z" stroke="#5e5e5e" stroke-width=".05" fill="#5e5e5e"/><path d="M-513.65 270l14.27-4.63v9.26z" stroke="#5e5e5e" stroke-width="3" fill="#5e5e5e"/><path d="M-660 226a6 6 0 0 1 6-6h128a6 6 0 0 1 6 6v88a6 6 0 0 1-6 6h-128a6 6 0 0 1-6-6z" stroke="#3a414a" stroke-width="3" fill="#fff"/><use xlink:href="#n" transform="matrix(1,0,0,1,-648,232) translate(0.3703703703703667 42.708333333333336)"/><use xlink:href="#o" transform="matrix(1,0,0,1,-648,232) translate(59.48148148148148 42.708333333333336)"/><path d="M-157 90H37.88" stroke="#5e5e5e" stroke-width="3" fill="none"/><path d="M-156.96 91.47h-1.54v-2.94h1.54z" stroke="#5e5e5e" stroke-width=".05" fill="#5e5e5e"/><path d="M53.65 90l-14.27 4.64v-9.28z" stroke="#5e5e5e" stroke-width="3" fill="#5e5e5e"/><path d="M-663.5 440h-87.28" stroke="#ff80df" stroke-width="4" fill="none"/><path d="M-661.5 441.98h-2.05v-3.96h2.05z" stroke="#ff80df" stroke-width=".05" fill="#ff80df"/><path d="M-767.05 440l14.27-4.63v9.26z" stroke="#ff80df" stroke-width="4" fill="#ff80df"/><path d="M-882 440h-78.64a6 6 0 0 1-6-6V204.24" stroke="#ff80df" stroke-width="4" fill="none"/><path d="M-877 439h-3v2h3v.98h-5.05v-3.96h5.05z" stroke="#ff80df" stroke-width=".05" fill="#ff80df"/><path d="M-966.64 187.97l4.64 14.27h-9.27z" stroke="#ff80df" stroke-width="4" fill="#ff80df"/><use xlink:href="#p" transform="matrix(1,0,0,1,-958.6380199923545,360.6160274572661) translate(0.004999999999999005 24.888888888888893)"/><path d="M-160 486a6 6 0 0 1 6-6H54a6 6 0 0 1 6 6v108a6 6 0 0 1-6 6h-208a6 6 0 0 1-6-6z" stroke="#3a414a" stroke-width="3" fill="#fff"/><use xlink:href="#q" transform="matrix(1,0,0,1,-148,492) translate(3.1111111111111143 54.88888888888889)"/><use xlink:href="#r" transform="matrix(1,0,0,1,-148,492) translate(127.2962962962963 54.88888888888889)"/><path d="M-100-314a6 6 0 0 1 6-6H14a6 6 0 0 1 6 6v88a6 6 0 0 1-6 6H-94a6 6 0 0 1-6-6z" stroke="#3a414a" stroke-width="3" fill="#fff"/><use xlink:href="#s" transform="matrix(1,0,0,1,-88,-308) translate(18.372222222222224 46.25)"/><path d="M60 6a6 6 0 0 1 6-6h148a6 6 0 0 1 6 6v168a6 6 0 0 1-6 6H66a6 6 0 0 1-6-6z" stroke="#3a414a" stroke-width="3" fill="#fff"/><use xlink:href="#t" transform="matrix(1,0,0,1,72,12) translate(13.305555555555543 68.30555555555556)"/><use xlink:href="#u" transform="matrix(1,0,0,1,72,12) translate(21.996913580246904 97.6388888888889)"/><path d="M280 25.97a6 6 0 0 1 6-6h120a6 6 0 0 1 6 6v118.97a6 6 0 0 1-6 6H286a6 6 0 0 1-6-6z" stroke="#3a414a" stroke-width="3" fill="#fff"/><use xlink:href="#v" transform="matrix(1,0,0,1,292,31.966313873134396) translate(-6.592592592592595 58.833333333333336)"/><path d="M223 90h34.88" stroke="#5e5e5e" stroke-width="3" fill="none"/><path d="M223.04 91.47h-1.54v-2.94h1.54z" stroke="#5e5e5e" stroke-width=".05" fill="#5e5e5e"/><path d="M273.65 90l-14.27 4.64v-9.28z" stroke="#5e5e5e" stroke-width="3" fill="#5e5e5e"/><path d="M-1388.03 533.92l.06.7.15.62.24.6.33.52.4.48.5.4.52.34.6.24.6.15.7.05H-163.5V542h-1220.58l-1.17-.1-1.22-.3-1.15-.47-1.07-.64-.94-.82-.82-.95-.65-1.08-.5-1.15-.28-1.22-.1-1.17V304.24h3.95z" stroke="#e81313" stroke-width=".05" fill="#e81313"/><path d="M-161.5 541.98h-2.05V538h2.05z" fill="#e81313"/><path stroke="#e81313" stroke-width=".05" fill="#e81313"/><path d="M-1385.37 302.24h-9.27l4.64-14.27z" fill="#e81313"/><path d="M-1382.65 304.2h-14.7l7.35-22.62zm-9.27-3.94h3.84l-1.92-5.9z" stroke="#e81313" stroke-width=".05" fill="#e81313"/><use xlink:href="#w" transform="matrix(1,0,0,1,-1382,382.03388581824635) translate(0.005000000000002558 24.888888888888893)"/><path d="M600 186a6 6 0 0 1 6-6h148a6 6 0 0 1 6 6v108a6 6 0 0 1-6 6H606a6 6 0 0 1-6-6z" stroke="#3a414a" stroke-width="3" fill="#fff"/><use xlink:href="#x" transform="matrix(1,0,0,1,612,192) translate(41.44444444444444 56)"/><path d="M600 366a6 6 0 0 1 6-6h148a6 6 0 0 1 6 6v208a6 6 0 0 1-6 6H606a6 6 0 0 1-6-6z" stroke="#3a414a" stroke-width="3" fill="#fff"/><use xlink:href="#y" transform="matrix(1,0,0,1,612,372) translate(41.33333333333333 39.333333333333336)"/><use xlink:href="#z" transform="matrix(1,0,0,1,612,372) translate(68 71.33333333333334)"/><use xlink:href="#A" transform="matrix(1,0,0,1,612,372) translate(41.407407407407405 103.33333333333334)"/><use xlink:href="#z" transform="matrix(1,0,0,1,612,372) translate(68 135.33333333333334)"/><use xlink:href="#B" transform="matrix(1,0,0,1,612,372) translate(-6.666666666666657 167.33333333333334)"/><path d="M680 303v34.88" stroke="#5e5e5e" stroke-width="3" fill="none"/><path d="M681.48 303.04h-2.96v-1.54h2.96z" stroke="#5e5e5e" stroke-width=".05" fill="#5e5e5e"/><path d="M680 353.65l-4.63-14.27h9.26z" stroke="#5e5e5e" stroke-width="3" fill="#5e5e5e"/><path d="M680 583v52.5a6 6 0 0 1-6 6H-44a6 6 0 0 1-6-6v-13.38" stroke="#5e5e5e" stroke-width="3" fill="none"/><path d="M681.48 583.04h-2.96v-1.54h2.96z" stroke="#5e5e5e" stroke-width=".05" fill="#5e5e5e"/><path d="M-50 606.35l4.63 14.27h-9.27z" stroke="#5e5e5e" stroke-width="3" fill="#5e5e5e"/><path d="M-40-216v100a6 6 0 0 1-6 6h-206a6 6 0 0 0-6 6v77.64" stroke="#fc9432" stroke-width="5" fill="none"/><path d="M-37.52-215.94h-4.95v-2.56h4.95z" stroke="#fc9432" stroke-width=".05" fill="#fc9432"/><path d="M-258-9.6l-4.62-14.26h9.27z" stroke="#fc9432" stroke-width="5" fill="#fc9432"/><path d="M63.5 540H340a6 6 0 0 0 6-6V175.18" stroke="#e81313" stroke-width="4" fill="none"/><path d="M63.55 541.98H61.5V538h2.05z" stroke="#e81313" stroke-width=".05" fill="#e81313"/><path d="M346 158.9l4.63 14.28h-9.27z" stroke="#e81313" stroke-width="4" fill="#e81313"/><use xlink:href="#C" transform="matrix(1,0,0,1,275.77201502441153,457.7781601164087) translate(0.004999999999999005 24.888888888888893)"/><path d="M-660 386a6 6 0 0 1 6-6h148a6 6 0 0 1 6 6v108a6 6 0 0 1-6 6h-148a6 6 0 0 1-6-6z" stroke="#3a414a" stroke-width="3" fill="#fff"/><use xlink:href="#D" transform="matrix(1,0,0,1,-648,392) translate(34.3395061728395 36.88888888888889)"/><use xlink:href="#E" transform="matrix(1,0,0,1,-648,392) translate(23.148148148148138 74.22222222222223)"/><use xlink:href="#F" transform="matrix(1,0,0,1,-648,392) translate(49.07407407407407 74.22222222222223)"/><path d="M600 31.45a6 6 0 0 1 6-6h148a6 6 0 0 1 6 6v108a6 6 0 0 1-6 6H606a6 6 0 0 1-6-6z" stroke="#3a414a" stroke-width="3" fill="#fff"/><use xlink:href="#x" transform="matrix(1,0,0,1,612,37.452764491359666) translate(41.44444444444444 56)"/><path d="M415 85.45h162.88" stroke="#5e5e5e" stroke-width="3" fill="none"/><path d="M415.03 86.93h-1.54v-2.95h1.53z" stroke="#5e5e5e" stroke-width=".05" fill="#5e5e5e"/><path d="M593.65 85.45l-14.27 4.64V80.8z" stroke="#5e5e5e" stroke-width="3" fill="#5e5e5e"/><path d="M880 31.5a6 6 0 0 1 6-6h148a6 6 0 0 1 6 6v108a6 6 0 0 1-6 6H886a6 6 0 0 1-6-6z" stroke="#3a414a" stroke-width="3" fill="#fff"/><path d="M857.88 85.5h-37.86a.02.02 0 0 1-.02-.03.02.02 0 0 0-.02-.02H763" stroke="#5e5e5e" stroke-width="3" fill="none"/><path d="M873.65 85.5l-14.27 4.62v-9.27z" stroke="#5e5e5e" stroke-width="3" fill="#5e5e5e"/><path d="M763.04 86.93h-1.54v-2.95h1.54z" stroke="#5e5e5e" stroke-width=".05" fill="#5e5e5e"/><path d="M920 65.5h80v40h-80z" fill="none"/><path d="M920 85.5v-20h40v40h40v-20" stroke="#000" stroke-width="5" fill="none"/><path d="M-1184.07 538.5h-2.95V419.37h2.95zm0-156.47h-2.95V165.86h2.95z" stroke="#e81313" stroke-width=".05" fill="#e81313"/><path d="M-1180.9 164.36h-9.28l4.63-14.27z" fill="#e81313"/><path d="M-1178.88 165.83h-13.33l6.65-20.5zm-9.27-2.95h5.2l-2.6-8.02zM-1184.07 540h-2.95v-1.54h2.95z" stroke="#e81313" stroke-width=".05" fill="#e81313"/><g><use xlink:href="#G" transform="matrix(1,0,0,1,-1216.5730402625757,382.03388581824646) translate(0.004999999999999005 24.888888888888893)"/></g><path d="M-773.52 388.56v102.88h-21.3V388.56z" fill="none"/><path d="M-784.17 388.56L-869.35 440l85.18 51.44z" stroke="#ff80df" stroke-width="2" fill="#fff"/><path d="M-867.22 440H-880M-773.52 440h-12.78" stroke="#ff80df" stroke-width="2" fill="none"/><g><use xlink:href="#H" transform="matrix(1,0,0,1,-880,388.55847081665445) translate(48.5729012345679 56.40277777777778)"/></g><path d="M1017 240H782.12M1016.96 240h1.54" stroke="#5e5e5e" stroke-width="3" fill="none"/><path d="M766.35 240l14.27-4.63v9.26z" stroke="#5e5e5e" stroke-width="3" fill="#5e5e5e"/><path d="M-900 210.57h60v37.94h-60z" fill="#fff" fill-opacity="0"/><path d="M-873.54 233.66h-23.73v-2.8h23.73v2.8M-842.04 243.03h-26.72l12.74-28.72h.85m6.7 24.8l-8.24-18.74-8.3 18.75h16.52"/><path d="M818.5 196a6 6 0 0 1 6-6h228a6 6 0 0 1 6 6v48a6 6 0 0 1-6 6h-228a6 6 0 0 1-6-6z" fill="none"/><g><use xlink:href="#I" transform="matrix(1,0,0,1,818.5000499999994,190) translate(77.88888888888889 38)"/></g><defs><path d="M205 0l-28-72H64L36 0H1l101-248h38L239 0h-34zm-38-99l-47-123c-12 45-31 82-46 123h93" id="J"/><path d="M30-248c118-7 216 8 213 122C240-48 200 0 122 0H30v-248zM63-27c89 8 146-16 146-99s-60-101-146-95v194" id="K"/><path d="M212-179c-10-28-35-45-73-45-59 0-87 40-87 99 0 60 29 101 89 101 43 0 62-24 78-52l27 14C228-24 195 4 139 4 59 4 22-46 18-125c-6-104 99-153 187-111 19 9 31 26 39 46" id="L"/><path d="M16-82v-28h88v28H16" id="M"/><path d="M185-189c-5-48-123-54-124 2 14 75 158 14 163 119 3 78-121 87-175 55-17-10-28-26-33-46l33-7c5 56 141 63 141-1 0-78-155-14-162-118-5-82 145-84 179-34 5 7 8 16 11 25" id="N"/><path d="M179-190L93 31C79 59 56 82 12 73V49c39 6 53-20 64-50L1-190h34L92-34l54-156h33" id="O"/><path d="M135-143c-3-34-86-38-87 0 15 53 115 12 119 90S17 21 10-45l28-5c4 36 97 45 98 0-10-56-113-15-118-90-4-57 82-63 122-42 12 7 21 19 24 35" id="P"/><path d="M59-47c-2 24 18 29 38 22v24C64 9 27 4 27-40v-127H5v-23h24l9-43h21v43h35v23H59v120" id="Q"/><path d="M100-194c63 0 86 42 84 106H49c0 40 14 67 53 68 26 1 43-12 49-29l28 8c-11 28-37 45-77 45C44 4 14-33 15-96c1-61 26-98 85-98zm52 81c6-60-76-77-97-28-3 7-6 17-6 28h103" id="R"/><path d="M210-169c-67 3-38 105-44 169h-31v-121c0-29-5-50-35-48C34-165 62-65 56 0H25l-1-190h30c1 10-1 24 2 32 10-44 99-50 107 0 11-21 27-35 58-36 85-2 47 119 55 194h-31v-121c0-29-5-49-35-48" id="S"/><g id="a"><use transform="matrix(0.1111111111111111,0,0,0.1111111111111111,0,0)" xlink:href="#J"/><use transform="matrix(0.1111111111111111,0,0,0.1111111111111111,26.666666666666664,0)" xlink:href="#K"/><use transform="matrix(0.1111111111111111,0,0,0.1111111111111111,55.44444444444444,0)" xlink:href="#L"/><use transform="matrix(0.1111111111111111,0,0,0.1111111111111111,84.22222222222221,0)" xlink:href="#M"/><use transform="matrix(0.1111111111111111,0,0,0.1111111111111111,97.44444444444443,0)" xlink:href="#N"/><use transform="matrix(0.1111111111111111,0,0,0.1111111111111111,124.11111111111109,0)" xlink:href="#O"/><use transform="matrix(0.1111111111111111,0,0,0.1111111111111111,144.1111111111111,0)" xlink:href="#P"/><use transform="matrix(0.1111111111111111,0,0,0.1111111111111111,164.1111111111111,0)" xlink:href="#Q"/><use transform="matrix(0.1111111111111111,0,0,0.1111111111111111,175.2222222222222,0)" xlink:href="#R"/><use transform="matrix(0.1111111111111111,0,0,0.1111111111111111,197.44444444444443,0)" xlink:href="#S"/></g><path d="M24-231v-30h32v30H24zM24 0v-190h32V0H24" id="T"/><path d="M177-190C167-65 218 103 67 71c-23-6-38-20-44-43l32-5c15 47 100 32 89-28v-30C133-14 115 1 83 1 29 1 15-40 15-95c0-56 16-97 71-98 29-1 48 16 59 35 1-10 0-23 2-32h30zM94-22c36 0 50-32 50-73 0-42-14-75-50-75-39 0-46 34-46 75s6 73 46 73" id="U"/><path d="M141-36C126-15 110 5 73 4 37 3 15-17 15-53c-1-64 63-63 125-63 3-35-9-54-41-54-24 1-41 7-42 31l-33-3c5-37 33-52 76-52 45 0 72 20 72 64v82c-1 20 7 32 28 27v20c-31 9-61-2-59-35zM48-53c0 20 12 33 32 33 41-3 63-29 60-74-43 2-92-5-92 41" id="V"/><path d="M24 0v-261h32V0H24" id="W"/><g id="b"><use transform="matrix(0.1111111111111111,0,0,0.1111111111111111,0,0)" xlink:href="#K"/><use transform="matrix(0.1111111111111111,0,0,0.1111111111111111,28.777777777777775,0)" xlink:href="#T"/><use transform="matrix(0.1111111111111111,0,0,0.1111111111111111,37.55555555555555,0)" xlink:href="#U"/><use transform="matrix(0.1111111111111111,0,0,0.1111111111111111,59.77777777777777,0)" xlink:href="#T"/><use transform="matrix(0.1111111111111111,0,0,0.1111111111111111,68.55555555555554,0)" xlink:href="#Q"/><use transform="matrix(0.1111111111111111,0,0,0.1111111111111111,79.66666666666666,0)" xlink:href="#V"/><use transform="matrix(0.1111111111111111,0,0,0.1111111111111111,101.88888888888889,0)" xlink:href="#W"/></g><path d="M63-220v92h138v28H63V0H30v-248h175v28H63" id="X"/><path d="M114-163C36-179 61-72 57 0H25l-1-190h30c1 12-1 29 2 39 6-27 23-49 58-41v29" id="Y"/><g id="c"><use transform="matrix(0.1111111111111111,0,0,0.1111111111111111,0,0)" xlink:href="#X"/><use transform="matrix(0.1111111111111111,0,0,0.1111111111111111,24.333333333333332,0)" xlink:href="#T"/><use transform="matrix(0.1111111111111111,0,0,0.1111111111111111,33.11111111111111,0)" xlink:href="#W"/><use transform="matrix(0.1111111111111111,0,0,0.1111111111111111,41.888888888888886,0)" xlink:href="#Q"/><use transform="matrix(0.1111111111111111,0,0,0.1111111111111111,53,0)" xlink:href="#R"/><use transform="matrix(0.1111111111111111,0,0,0.1111111111111111,75.22222222222223,0)" xlink:href="#Y"/></g><g id="d"><use transform="matrix(0.1111111111111111,0,0,0.1111111111111111,0,0)" xlink:href="#N"/><use transform="matrix(0.1111111111111111,0,0,0.1111111111111111,26.666666666666664,0)" xlink:href="#Q"/><use transform="matrix(0.1111111111111111,0,0,0.1111111111111111,37.77777777777777,0)" xlink:href="#V"/><use transform="matrix(0.1111111111111111,0,0,0.1111111111111111,60,0)" xlink:href="#U"/><use transform="matrix(0.1111111111111111,0,0,0.1111111111111111,82.22222222222221,0)" xlink:href="#R"/></g><path d="M240 0l2-218c-23 76-54 145-80 218h-23L58-218 59 0H30v-248h44l77 211c21-75 51-140 76-211h43V0h-30" id="Z"/><path d="M100-194c62-1 85 37 85 99 1 63-27 99-86 99S16-35 15-95c0-66 28-99 85-99zM99-20c44 1 53-31 53-75 0-43-8-75-51-75s-53 32-53 75 10 74 51 75" id="aa"/><path d="M85-194c31 0 48 13 60 33l-1-100h32l1 261h-30c-2-10 0-23-3-31C134-8 116 4 85 4 32 4 16-35 15-94c0-66 23-100 70-100zm9 24c-40 0-46 34-46 75 0 40 6 74 45 74 42 0 51-32 51-76 0-42-9-74-50-73" id="ab"/><path d="M84 4C-5 8 30-112 23-190h32v120c0 31 7 50 39 49 72-2 45-101 50-169h31l1 190h-30c-1-10 1-25-2-33-11 22-28 36-60 37" id="ac"/><g id="e"><use transform="matrix(0.1111111111111111,0,0,0.1111111111111111,0,0)" xlink:href="#Z"/><use transform="matrix(0.1111111111111111,0,0,0.1111111111111111,33.22222222222222,0)" xlink:href="#aa"/><use transform="matrix(0.1111111111111111,0,0,0.1111111111111111,55.44444444444444,0)" xlink:href="#ab"/><use transform="matrix(0.1111111111111111,0,0,0.1111111111111111,77.66666666666666,0)" xlink:href="#ac"/><use transform="matrix(0.1111111111111111,0,0,0.1111111111111111,99.88888888888889,0)" xlink:href="#W"/><use transform="matrix(0.1111111111111111,0,0,0.1111111111111111,108.66666666666666,0)" xlink:href="#V"/><use transform="matrix(0.1111111111111111,0,0,0.1111111111111111,130.88888888888889,0)" xlink:href="#Q"/><use transform="matrix(0.1111111111111111,0,0,0.1111111111111111,142,0)" xlink:href="#aa"/><use transform="matrix(0.1111111111111111,0,0,0.1111111111111111,164.22222222222223,0)" xlink:href="#Y"/></g><use transform="matrix(0.08641975308641976,0,0,0.08641975308641976,0,0)" xlink:href="#Z" id="f"/><path d="M232-93c-1 65-40 97-104 97C67 4 28-28 28-90v-158h33c8 89-33 224 67 224 102 0 64-133 71-224h33v155" id="ad"/><use transform="matrix(0.08641975308641976,0,0,0.08641975308641976,0,0)" xlink:href="#ad" id="g"/><path d="M195 0l-74-108L45 0H8l94-129-87-119h37l69 98 67-98h37l-84 118L233 0h-38" id="ae"/><use transform="matrix(0.08641975308641976,0,0,0.08641975308641976,0,0)" xlink:href="#ae" id="h"/><path d="M206 0h-36l-40-164L89 0H53L-1-190h32L70-26l43-164h34l41 164 42-164h31" id="af"/><path d="M96-169c-40 0-48 33-48 73s9 75 48 75c24 0 41-14 43-38l32 2c-6 37-31 61-74 61-59 0-76-41-82-99-10-93 101-131 147-64 4 7 5 14 7 22l-32 3c-4-21-16-35-41-35" id="ag"/><path d="M106-169C34-169 62-67 57 0H25v-261h32l-1 103c12-21 28-36 61-36 89 0 53 116 60 194h-32v-121c2-32-8-49-39-48" id="ah"/><path d="M115-194c55 1 70 41 70 98S169 2 115 4C84 4 66-9 55-30l1 105H24l-1-265h31l2 30c10-21 28-34 59-34zm-8 174c40 0 45-34 45-75s-6-73-45-74c-42 0-51 32-51 76 0 43 10 73 51 73" id="ai"/><g id="i"><use transform="matrix(0.06790123456790124,0,0,0.06790123456790124,0,0)" xlink:href="#N"/><use transform="matrix(0.06790123456790124,0,0,0.06790123456790124,16.296296296296298,0)" xlink:href="#af"/><use transform="matrix(0.06790123456790124,0,0,0.06790123456790124,33.88271604938272,0)" xlink:href="#T"/><use transform="matrix(0.06790123456790124,0,0,0.06790123456790124,39.24691358024692,0)" xlink:href="#Q"/><use transform="matrix(0.06790123456790124,0,0,0.06790123456790124,46.037037037037045,0)" xlink:href="#ag"/><use transform="matrix(0.06790123456790124,0,0,0.06790123456790124,58.25925925925927,0)" xlink:href="#ah"/><use transform="matrix(0.06790123456790124,0,0,0.06790123456790124,71.83950617283952,0)" xlink:href="#R"/><use transform="matrix(0.06790123456790124,0,0,0.06790123456790124,85.41975308641977,0)" xlink:href="#ab"/><use transform="matrix(0.06790123456790124,0,0,0.06790123456790124,99.00000000000003,0)" xlink:href="#M"/><use transform="matrix(0.06790123456790124,0,0,0.06790123456790124,107.08024691358028,0)" xlink:href="#L"/><use transform="matrix(0.06790123456790124,0,0,0.06790123456790124,124.6666666666667,0)" xlink:href="#V"/><use transform="matrix(0.06790123456790124,0,0,0.06790123456790124,138.24691358024694,0)" xlink:href="#ai"/><use transform="matrix(0.06790123456790124,0,0,0.06790123456790124,151.8271604938272,0)" xlink:href="#V"/><use transform="matrix(0.06790123456790124,0,0,0.06790123456790124,165.40740740740742,0)" xlink:href="#ag"/><use transform="matrix(0.06790123456790124,0,0,0.06790123456790124,177.62962962962968,0)" xlink:href="#T"/><use transform="matrix(0.06790123456790124,0,0,0.06790123456790124,182.99382716049388,0)" xlink:href="#Q"/><use transform="matrix(0.06790123456790124,0,0,0.06790123456790124,189.783950617284,0)" xlink:href="#aa"/><use transform="matrix(0.06790123456790124,0,0,0.06790123456790124,203.36419753086426,0)" xlink:href="#Y"/></g><path d="M33 0v-248h34V0H33" id="aj"/><path d="M117-194c89-4 53 116 60 194h-32v-121c0-31-8-49-39-48C34-167 62-67 57 0H25l-1-190h30c1 10-1 24 2 32 11-22 29-35 61-36" id="ak"/><g id="j"><use transform="matrix(0.06790123456790124,0,0,0.06790123456790124,0,0)" xlink:href="#aj"/><use transform="matrix(0.06790123456790124,0,0,0.06790123456790124,6.790123456790124,0)" xlink:href="#ak"/><use transform="matrix(0.06790123456790124,0,0,0.06790123456790124,20.370370370370374,0)" xlink:href="#ai"/><use transform="matrix(0.06790123456790124,0,0,0.06790123456790124,33.95061728395062,0)" xlink:href="#ac"/><use transform="matrix(0.06790123456790124,0,0,0.06790123456790124,47.530864197530875,0)" xlink:href="#Q"/><use transform="matrix(0.06790123456790124,0,0,0.06790123456790124,54.320987654320994,0)" xlink:href="#P"/><use transform="matrix(0.06790123456790124,0,0,0.06790123456790124,66.54320987654322,0)" xlink:href="#Q"/><use transform="matrix(0.06790123456790124,0,0,0.06790123456790124,73.33333333333334,0)" xlink:href="#V"/><use transform="matrix(0.06790123456790124,0,0,0.06790123456790124,86.9135802469136,0)" xlink:href="#U"/><use transform="matrix(0.06790123456790124,0,0,0.06790123456790124,100.49382716049385,0)" xlink:href="#R"/></g><path d="M30-248c87 1 191-15 191 75 0 78-77 80-158 76V0H30v-248zm33 125c57 0 124 11 124-50 0-59-68-47-124-48v98" id="al"/><path d="M143 4C61 4 22-44 18-125c-5-107 100-154 193-111 17 8 29 25 37 43l-32 9c-13-25-37-40-76-40-61 0-88 39-88 99 0 61 29 100 91 101 35 0 62-11 79-27v-45h-74v-28h105v86C228-13 192 4 143 4" id="am"/><g id="k"><use transform="matrix(0.06790123456790124,0,0,0.06790123456790124,0,0)" xlink:href="#al"/><use transform="matrix(0.06790123456790124,0,0,0.06790123456790124,16.296296296296298,0)" xlink:href="#am"/><use transform="matrix(0.06790123456790124,0,0,0.06790123456790124,35.308641975308646,0)" xlink:href="#J"/></g><g id="l"><use transform="matrix(0.07407407407407408,0,0,0.07407407407407408,0,0)" xlink:href="#L"/><use transform="matrix(0.07407407407407408,0,0,0.07407407407407408,19.185185185185187,0)" xlink:href="#aa"/><use transform="matrix(0.07407407407407408,0,0,0.07407407407407408,34,0)" xlink:href="#S"/><use transform="matrix(0.07407407407407408,0,0,0.07407407407407408,56.14814814814815,0)" xlink:href="#ai"/><use transform="matrix(0.07407407407407408,0,0,0.07407407407407408,70.96296296296296,0)" xlink:href="#V"/><use transform="matrix(0.07407407407407408,0,0,0.07407407407407408,85.77777777777777,0)" xlink:href="#Y"/><use transform="matrix(0.07407407407407408,0,0,0.07407407407407408,94.5925925925926,0)" xlink:href="#V"/><use transform="matrix(0.07407407407407408,0,0,0.07407407407407408,109.40740740740739,0)" xlink:href="#Q"/><use transform="matrix(0.07407407407407408,0,0,0.07407407407407408,116.8148148148148,0)" xlink:href="#aa"/><use transform="matrix(0.07407407407407408,0,0,0.07407407407407408,131.62962962962962,0)" xlink:href="#Y"/></g><path d="M87 75C49 33 22-17 22-94c0-76 28-126 65-167h31c-38 41-64 92-64 168S80 34 118 75H87" id="an"/><path d="M27 0v-27h64v-190l-56 39v-29l58-41h29v221h61V0H27" id="ao"/><path d="M160-131c35 5 61 23 61 61C221 17 115-2 30 0v-248c76 3 177-17 177 60 0 33-19 50-47 57zm-97-11c50-1 110 9 110-42 0-47-63-36-110-37v79zm0 115c55-2 124 14 124-45 0-56-70-42-124-44v89" id="ap"/><path d="M33-261c38 41 65 92 65 168S71 34 33 75H2C39 34 66-17 66-93S39-220 2-261h31" id="aq"/><g id="m"><use transform="matrix(0.07407407407407408,0,0,0.07407407407407408,0,0)" xlink:href="#an"/><use transform="matrix(0.07407407407407408,0,0,0.07407407407407408,8.814814814814817,0)" xlink:href="#ao"/><use transform="matrix(0.07407407407407408,0,0,0.07407407407407408,23.629629629629633,0)" xlink:href="#M"/><use transform="matrix(0.07407407407407408,0,0,0.07407407407407408,32.44444444444445,0)" xlink:href="#ap"/><use transform="matrix(0.07407407407407408,0,0,0.07407407407407408,50.22222222222223,0)" xlink:href="#T"/><use transform="matrix(0.07407407407407408,0,0,0.07407407407407408,56.07407407407408,0)" xlink:href="#Q"/><use transform="matrix(0.07407407407407408,0,0,0.07407407407407408,63.481481481481495,0)" xlink:href="#aq"/></g><path d="M115-194c53 0 69 39 70 98 0 66-23 100-70 100C84 3 66-7 56-30L54 0H23l1-261h32v101c10-23 28-34 59-34zm-8 174c40 0 45-34 45-75 0-40-5-75-45-74-42 0-51 32-51 76 0 43 10 73 51 73" id="ar"/><g id="n"><use transform="matrix(0.07407407407407408,0,0,0.07407407407407408,0,0)" xlink:href="#ao"/><use transform="matrix(0.07407407407407408,0,0,0.07407407407407408,14.814814814814817,0)" xlink:href="#M"/><use transform="matrix(0.07407407407407408,0,0,0.07407407407407408,23.629629629629633,0)" xlink:href="#ar"/><use transform="matrix(0.07407407407407408,0,0,0.07407407407407408,38.44444444444445,0)" xlink:href="#T"/><use transform="matrix(0.07407407407407408,0,0,0.07407407407407408,44.296296296296305,0)" xlink:href="#Q"/></g><g id="o"><use transform="matrix(0.07407407407407408,0,0,0.07407407407407408,0,0)" xlink:href="#K"/><use transform="matrix(0.07407407407407408,0,0,0.07407407407407408,19.185185185185187,0)" xlink:href="#J"/><use transform="matrix(0.07407407407407408,0,0,0.07407407407407408,36.96296296296296,0)" xlink:href="#L"/></g><path fill="#d916a8" d="M121-226c-27-7-43 5-38 36h38v33H83V0H34v-157H6v-33h28c-9-59 32-81 87-68v32" id="as"/><path fill="#d916a8" d="M230 0l2-204L168 0h-37L68-204 70 0H24v-248h70l56 185 57-185h69V0h-46" id="at"/><path fill="#d916a8" d="M140-251c80 0 125 45 125 126S219 4 139 4C58 4 15-44 15-125s44-126 125-126zm-1 214c52 0 73-35 73-88 0-50-21-86-72-86-52 0-73 35-73 86s22 88 72 88" id="au"/><path fill="#d916a8" d="M24-248c120-7 223 5 221 122C244-46 201 0 124 0H24v-248zM76-40c74 7 117-18 117-86 0-67-45-88-117-82v168" id="av"/><g id="p"><use transform="matrix(0.08641975308641976,0,0,0.08641975308641976,0,0)" xlink:href="#as"/><use transform="matrix(0.06049382716049383,0,0,0.06049382716049383,10.283950617283951,4.355555555555555)" xlink:href="#at"/><use transform="matrix(0.06049382716049383,0,0,0.06049382716049383,28.371604938271602,4.355555555555555)" xlink:href="#au"/><use transform="matrix(0.06049382716049383,0,0,0.06049382716049383,45.309876543209874,4.355555555555555)" xlink:href="#av"/></g><path d="M233-177c-1 41-23 64-60 70L243 0h-38l-65-103H63V0H30v-248c88 3 205-21 203 71zM63-129c60-2 137 13 137-47 0-61-80-42-137-45v92" id="aw"/><g id="q"><use transform="matrix(0.08641975308641976,0,0,0.08641975308641976,0,0)" xlink:href="#aw"/><use transform="matrix(0.08641975308641976,0,0,0.08641975308641976,22.38271604938272,0)" xlink:href="#R"/><use transform="matrix(0.08641975308641976,0,0,0.08641975308641976,39.66666666666667,0)" xlink:href="#U"/><use transform="matrix(0.08641975308641976,0,0,0.08641975308641976,56.95061728395062,0)" xlink:href="#T"/><use transform="matrix(0.08641975308641976,0,0,0.08641975308641976,63.777777777777786,0)" xlink:href="#P"/><use transform="matrix(0.08641975308641976,0,0,0.08641975308641976,79.33333333333334,0)" xlink:href="#Q"/><use transform="matrix(0.08641975308641976,0,0,0.08641975308641976,87.97530864197532,0)" xlink:href="#R"/><use transform="matrix(0.08641975308641976,0,0,0.08641975308641976,105.25925925925927,0)" xlink:href="#Y"/></g><g id="r"><use transform="matrix(0.08641975308641976,0,0,0.08641975308641976,0,0)" xlink:href="#K"/><use transform="matrix(0.08641975308641976,0,0,0.08641975308641976,22.38271604938272,0)" xlink:href="#V"/><use transform="matrix(0.08641975308641976,0,0,0.08641975308641976,39.66666666666667,0)" xlink:href="#Q"/><use transform="matrix(0.08641975308641976,0,0,0.08641975308641976,48.308641975308646,0)" xlink:href="#V"/></g><path d="M137 0h-34L2-248h35l83 218 83-218h36" id="ax"/><path d="M101-234c-31-9-42 10-38 44h38v23H63V0H32v-167H5v-23h27c-7-52 17-82 69-68v24" id="ay"/><g id="s"><use transform="matrix(0.1111111111111111,0,0,0.1111111111111111,0,0)" xlink:href="#ax"/><use transform="matrix(0.07777777777777777,0,0,0.07777777777777777,26.666666666666664,5.599999999999999)" xlink:href="#Y"/><use transform="matrix(0.07777777777777777,0,0,0.07777777777777777,35.92222222222222,5.599999999999999)" xlink:href="#R"/><use transform="matrix(0.07777777777777777,0,0,0.07777777777777777,51.477777777777774,5.599999999999999)" xlink:href="#ay"/></g><path d="M108 0H70L1-190h34L89-25l56-165h34" id="az"/><g id="t"><use transform="matrix(0.06790123456790124,0,0,0.06790123456790124,0,0)" xlink:href="#J"/><use transform="matrix(0.06790123456790124,0,0,0.06790123456790124,15.82098765432099,0)" xlink:href="#az"/><use transform="matrix(0.06790123456790124,0,0,0.06790123456790124,28.043209876543212,0)" xlink:href="#R"/><use transform="matrix(0.06790123456790124,0,0,0.06790123456790124,41.62345679012346,0)" xlink:href="#Y"/><use transform="matrix(0.06790123456790124,0,0,0.06790123456790124,49.70370370370371,0)" xlink:href="#V"/><use transform="matrix(0.06790123456790124,0,0,0.06790123456790124,63.28395061728396,0)" xlink:href="#U"/><use transform="matrix(0.06790123456790124,0,0,0.06790123456790124,76.8641975308642,0)" xlink:href="#T"/><use transform="matrix(0.06790123456790124,0,0,0.06790123456790124,82.2283950617284,0)" xlink:href="#ak"/><use transform="matrix(0.06790123456790124,0,0,0.06790123456790124,95.80864197530866,0)" xlink:href="#U"/></g><path d="M30 0v-248h33v221h125V0H30" id="aA"/><g id="u"><use transform="matrix(0.06790123456790124,0,0,0.06790123456790124,0,0)" xlink:href="#aA"/><use transform="matrix(0.06790123456790124,0,0,0.06790123456790124,13.580246913580249,0)" xlink:href="#al"/><use transform="matrix(0.06790123456790124,0,0,0.06790123456790124,29.876543209876544,0)" xlink:href="#M"/><use transform="matrix(0.06790123456790124,0,0,0.06790123456790124,37.95679012345679,0)" xlink:href="#X"/><use transform="matrix(0.06790123456790124,0,0,0.06790123456790124,52.827160493827165,0)" xlink:href="#T"/><use transform="matrix(0.06790123456790124,0,0,0.06790123456790124,58.19135802469136,0)" xlink:href="#W"/><use transform="matrix(0.06790123456790124,0,0,0.06790123456790124,63.55555555555556,0)" xlink:href="#Q"/><use transform="matrix(0.06790123456790124,0,0,0.06790123456790124,70.34567901234568,0)" xlink:href="#R"/><use transform="matrix(0.06790123456790124,0,0,0.06790123456790124,83.92592592592594,0)" xlink:href="#Y"/></g><g id="v"><use transform="matrix(0.07407407407407408,0,0,0.07407407407407408,0,0)" xlink:href="#K"/><use transform="matrix(0.07407407407407408,0,0,0.07407407407407408,19.185185185185187,0)" xlink:href="#R"/><use transform="matrix(0.07407407407407408,0,0,0.07407407407407408,34,0)" xlink:href="#ag"/><use transform="matrix(0.07407407407407408,0,0,0.07407407407407408,47.33333333333334,0)" xlink:href="#T"/><use transform="matrix(0.07407407407407408,0,0,0.07407407407407408,53.18518518518519,0)" xlink:href="#S"/><use transform="matrix(0.07407407407407408,0,0,0.07407407407407408,75.33333333333334,0)" xlink:href="#V"/><use transform="matrix(0.07407407407407408,0,0,0.07407407407407408,90.14814814814817,0)" xlink:href="#Q"/><use transform="matrix(0.07407407407407408,0,0,0.07407407407407408,97.55555555555556,0)" xlink:href="#aa"/><use transform="matrix(0.07407407407407408,0,0,0.07407407407407408,112.37037037037038,0)" xlink:href="#Y"/></g><path fill="#e81313" d="M169-182c-1-43-94-46-97-3 18 66 151 10 154 114 3 95-165 93-204 36-6-8-10-19-12-30l50-8c3 46 112 56 116 5-17-69-150-10-154-114-4-87 153-88 188-35 5 8 8 18 10 28" id="aB"/><path fill="#e81313" d="M185-48c-13 30-37 53-82 52C43 2 14-33 14-96s30-98 90-98c62 0 83 45 84 108H66c0 31 8 55 39 56 18 0 30-7 34-22zm-45-69c5-46-57-63-70-21-2 6-4 13-4 21h74" id="aC"/><path fill="#e81313" d="M115-3C79 11 28 4 28-45v-112H4v-33h27l15-45h31v45h36v33H77v99c-1 23 16 31 38 25v30" id="aD"/><path fill="#e81313" d="M85 4C-2 5 27-109 22-190h50c7 57-23 150 33 157 60-5 35-97 40-157h50l1 190h-47c-2-12 1-28-3-38-12 25-28 42-61 42" id="aE"/><path fill="#e81313" d="M135-194c53 0 70 44 70 98 0 56-19 98-73 100-31 1-45-17-59-34 3 33 2 69 2 105H25l-1-265h48c2 10 0 23 3 31 11-24 29-35 60-35zM114-30c33 0 39-31 40-66 0-38-9-64-40-64-56 0-55 130 0 130" id="aF"/><g id="w"><use transform="matrix(0.08641975308641976,0,0,0.08641975308641976,0,0)" xlink:href="#aB"/><use transform="matrix(0.08641975308641976,0,0,0.08641975308641976,20.740740740740744,0)" xlink:href="#aC"/><use transform="matrix(0.08641975308641976,0,0,0.08641975308641976,38.0246913580247,0)" xlink:href="#aD"/><use transform="matrix(0.08641975308641976,0,0,0.08641975308641976,48.308641975308646,0)" xlink:href="#aE"/><use transform="matrix(0.08641975308641976,0,0,0.08641975308641976,67.23456790123457,0)" xlink:href="#aF"/></g><path d="M111-209c0 50-58 54-76 90h78v20H8l-1-18c15-40 70-45 80-90-1-15-9-25-26-24-17 0-27 9-29 25l-23-2c5-26 22-42 53-42 30 0 49 14 49 41" id="aG"/><g id="x"><use transform="matrix(0.1111111111111111,0,0,0.1111111111111111,0,0)" xlink:href="#aj"/><use transform="matrix(0.1111111111111111,0,0,0.1111111111111111,11.11111111111111,0)" xlink:href="#aG"/><use transform="matrix(0.1111111111111111,0,0,0.1111111111111111,24.333333333333332,0)" xlink:href="#L"/></g><g id="y"><use transform="matrix(0.07407407407407408,0,0,0.07407407407407408,0,0)" xlink:href="#N"/><use transform="matrix(0.07407407407407408,0,0,0.07407407407407408,17.77777777777778,0)" xlink:href="#al"/><use transform="matrix(0.07407407407407408,0,0,0.07407407407407408,35.55555555555556,0)" xlink:href="#N"/></g><g id="A"><use transform="matrix(0.07407407407407408,0,0,0.07407407407407408,0,0)" xlink:href="#X"/><use transform="matrix(0.07407407407407408,0,0,0.07407407407407408,16.222222222222225,0)" xlink:href="#N"/><use transform="matrix(0.07407407407407408,0,0,0.07407407407407408,34,0)" xlink:href="#aw"/></g><g id="B"><use transform="matrix(0.07407407407407408,0,0,0.07407407407407408,0,0)" xlink:href="#N"/><use transform="matrix(0.07407407407407408,0,0,0.07407407407407408,17.77777777777778,0)" xlink:href="#V"/><use transform="matrix(0.07407407407407408,0,0,0.07407407407407408,32.592592592592595,0)" xlink:href="#S"/><use transform="matrix(0.07407407407407408,0,0,0.07407407407407408,54.74074074074075,0)" xlink:href="#ai"/><use transform="matrix(0.07407407407407408,0,0,0.07407407407407408,69.55555555555557,0)" xlink:href="#W"/><use transform="matrix(0.07407407407407408,0,0,0.07407407407407408,75.40740740740742,0)" xlink:href="#R"/><use transform="matrix(0.07407407407407408,0,0,0.07407407407407408,90.22222222222223,0)" xlink:href="#M"/><use transform="matrix(0.07407407407407408,0,0,0.07407407407407408,99.03703703703704,0)" xlink:href="#ah"/><use transform="matrix(0.07407407407407408,0,0,0.07407407407407408,113.85185185185185,0)" xlink:href="#aa"/><use transform="matrix(0.07407407407407408,0,0,0.07407407407407408,128.66666666666666,0)" xlink:href="#W"/><use transform="matrix(0.07407407407407408,0,0,0.07407407407407408,134.5185185185185,0)" xlink:href="#ab"/></g><path fill="#e81313" d="M24-248c93 1 206-16 204 79-1 75-69 88-152 82V0H24v-248zm52 121c47 0 100 7 100-41 0-47-54-39-100-39v80" id="aH"/><g id="C"><use transform="matrix(0.08641975308641976,0,0,0.08641975308641976,0,0)" xlink:href="#aB"/><use transform="matrix(0.08641975308641976,0,0,0.08641975308641976,20.740740740740744,0)" xlink:href="#aH"/><use transform="matrix(0.08641975308641976,0,0,0.08641975308641976,41.48148148148149,0)" xlink:href="#aB"/></g><path d="M140-251c81 0 123 46 123 126C263-46 219 4 140 4 59 4 17-45 17-125s42-126 123-126zm0 227c63 0 89-41 89-101s-29-99-89-99c-61 0-89 39-89 99S79-25 140-24" id="aI"/><g id="D"><use transform="matrix(0.08641975308641976,0,0,0.08641975308641976,0,0)" xlink:href="#aI"/><use transform="matrix(0.08641975308641976,0,0,0.08641975308641976,24.19753086419753,0)" xlink:href="#N"/><use transform="matrix(0.08641975308641976,0,0,0.08641975308641976,44.93827160493828,0)" xlink:href="#L"/></g><use transform="matrix(0.08641975308641976,0,0,0.08641975308641976,0,0)" xlink:href="#ao" id="E"/><path d="M197 0v-115H63V0H30v-248h33v105h134v-105h34V0h-34" id="aJ"/><path d="M9 0v-24l116-142H16v-24h144v24L44-24h123V0H9" id="aK"/><g id="F"><use transform="matrix(0.08641975308641976,0,0,0.08641975308641976,0,0)" xlink:href="#Z"/><use transform="matrix(0.08641975308641976,0,0,0.08641975308641976,25.83950617283951,0)" xlink:href="#aJ"/><use transform="matrix(0.08641975308641976,0,0,0.08641975308641976,48.22222222222223,0)" xlink:href="#aK"/></g><path fill="#e81313" d="M76-208v77h127v40H76V0H24v-248h183v40H76" id="aL"/><path fill="#e81313" d="M240-174c0 40-23 61-54 70L253 0h-59l-57-94H76V0H24v-248c93 4 217-23 216 74zM76-134c48-2 112 12 112-38 0-48-66-32-112-35v73" id="aM"/><g id="G"><use transform="matrix(0.08641975308641976,0,0,0.08641975308641976,0,0)" xlink:href="#aL"/><use transform="matrix(0.08641975308641976,0,0,0.08641975308641976,18.925925925925927,0)" xlink:href="#aB"/><use transform="matrix(0.08641975308641976,0,0,0.08641975308641976,39.66666666666667,0)" xlink:href="#aM"/></g><path d="M0 4l72-265h28L28 4H0" id="aN"/><path d="M155-56V0h-30v-56H8v-25l114-167h33v167h35v25h-35zm-30-156c-27 46-58 90-88 131h88v-131" id="aO"/><g id="H"><use transform="matrix(0.06172839506172839,0,0,0.06172839506172839,0,0)" xlink:href="#ao"/><use transform="matrix(0.06172839506172839,0,0,0.06172839506172839,12.345679012345679,0)" xlink:href="#aN"/><use transform="matrix(0.06172839506172839,0,0,0.06172839506172839,18.51851851851852,0)" xlink:href="#aO"/></g><g id="I"><use transform="matrix(0.1111111111111111,0,0,0.1111111111111111,0,0)" xlink:href="#ad"/><use transform="matrix(0.1111111111111111,0,0,0.1111111111111111,28.777777777777775,0)" xlink:href="#P"/><use transform="matrix(0.1111111111111111,0,0,0.1111111111111111,48.77777777777777,0)" xlink:href="#R"/><use transform="matrix(0.1111111111111111,0,0,0.1111111111111111,71,0)" xlink:href="#Y"/></g></defs></g></svg>