<?xml version="1.0" standalone="yes"?>
<!DOCTYPE svg PUBLIC "-//W3C//DTD SVG 1.1//EN"
 "http://www.w3.org/Graphics/SVG/1.1/DTD/svg11.dtd">
<svg xmlns="http://www.w3.org/2000/svg" version="1.1"
  width="100%" height="100%" viewBox="0 0 1024 768"
  style="fill: none; font-family: Helvetica;
 font: Helvetica;
">

<!-- Creator: NGspice -->

<rect x="0" y="0" width="1024" height="768" fill="black" stroke="none"/>
<text stroke="none" fill="white" font-size="16" x="358" y="752">
frequency
</text>
<text stroke="none" fill="white" font-size="16" x="10" y="16">
ac1: ** sch_path: /foss/designs/analog-circuit-design/priyanka/tb_telescopic_ac.sch
</text>
<path stroke="white" d="M60 720l0 -666"/>
<text stroke="none" fill="white" font-size="16" x="40" y="728">
10^3
</text>
<path stroke="white" stroke-dasharray="1,2" d="M105 720l0 -666M131 720l0 -666M150 720l0 -666M164 720l0 -666M176 720l0 -666M186 720l0 -666M195 720l0 -666M203 720l0 -666"/>
<path stroke="white" d="M210 720l0 -666"/>
<text stroke="none" fill="white" font-size="16" x="190" y="728">
10^4
</text>
<path stroke="white" stroke-dasharray="1,2" d="M255 720l0 -666M281 720l0 -666M300 720l0 -666M314 720l0 -666M326 720l0 -666M336 720l0 -666M345 720l0 -666M353 720l0 -666"/>
<path stroke="white" d="M360 720l0 -666"/>
<text stroke="none" fill="white" font-size="16" x="340" y="728">
10^5
</text>
<path stroke="white" stroke-dasharray="1,2" d="M405 720l0 -666M431 720l0 -666M450 720l0 -666M464 720l0 -666M476 720l0 -666M486 720l0 -666M495 720l0 -666M503 720l0 -666"/>
<path stroke="white" d="M510 720l0 -666"/>
<text stroke="none" fill="white" font-size="16" x="490" y="728">
10^6
</text>
<path stroke="white" stroke-dasharray="1,2" d="M555 720l0 -666M581 720l0 -666M600 720l0 -666M614 720l0 -666M626 720l0 -666M636 720l0 -666M645 720l0 -666M653 720l0 -666"/>
<path stroke="white" d="M660 720l0 -666"/>
<text stroke="none" fill="white" font-size="16" x="640" y="728">
10^7
</text>
<path stroke="white" stroke-dasharray="1,2" d="M705 720l0 -666M731 720l0 -666M750 720l0 -666M764 720l0 -666M776 720l0 -666M786 720l0 -666M795 720l0 -666M803 720l0 -666"/>
<path stroke="white" d="M810 720l0 -666"/>
<text stroke="none" fill="white" font-size="16" x="790" y="728">
10^8
</text>
<path stroke="white" stroke-dasharray="1,2" d="M855 720l0 -666M881 720l0 -666M900 720l0 -666M914 720l0 -666M926 720l0 -666M936 720l0 -666M945 720l0 -666M953 720l0 -666"/>
<path stroke="white" d="M960 720l0 -666"/>
<text stroke="none" fill="white" font-size="16" x="940" y="728">
10^9
</text>
<text stroke="none" fill="white" font-size="16" x="614" y="752">
Hz
</text>
<path stroke="white" stroke-dasharray="1,2" d="M60 720l900 0"/>
<text stroke="none" fill="white" font-size="16" x="8" y="728">
-45.0
</text>
<path stroke="white" stroke-dasharray="1,2" d="M60 646l900 0"/>
<text stroke="none" fill="white" font-size="16" x="8" y="654">
-40.0
</text>
<path stroke="white" stroke-dasharray="1,2" d="M60 572l900 0"/>
<text stroke="none" fill="white" font-size="16" x="8" y="580">
-35.0
</text>
<path stroke="white" stroke-dasharray="1,2" d="M60 498l900 0"/>
<text stroke="none" fill="white" font-size="16" x="8" y="506">
-30.0
</text>
<path stroke="white" stroke-dasharray="1,2" d="M60 424l900 0"/>
<text stroke="none" fill="white" font-size="16" x="8" y="432">
-25.0
</text>
<path stroke="white" stroke-dasharray="1,2" d="M60 350l900 0"/>
<text stroke="none" fill="white" font-size="16" x="8" y="358">
-20.0
</text>
<path stroke="white" stroke-dasharray="1,2" d="M60 276l900 0"/>
<text stroke="none" fill="white" font-size="16" x="8" y="284">
-15.0
</text>
<path stroke="white" stroke-dasharray="1,2" d="M60 202l900 0"/>
<text stroke="none" fill="white" font-size="16" x="8" y="210">
-10.0
</text>
<path stroke="white" stroke-dasharray="1,2" d="M60 128l900 0"/>
<text stroke="none" fill="white" font-size="16" x="18" y="136">
-5.0
</text>
<path stroke="white" d="M60 54l900 0"/>
<text stroke="none" fill="white" font-size="16" x="28" y="62">
0.0
</text>
<text stroke="none" fill="white" font-size="16" x="10" y="32">
     
</text>
<path stroke="red" d="M450 23l45 0"/>
<text stroke="none" fill="white" font-size="16" x="505" y="32">
20*log10(v_out)
</text>
<path stroke="red" d="M60 59l264 0 2 1 44 0 2 1 16 0 2 1 10 0 2 1 7 0 1 1 6 0 2 1 4 0 2 1 3 0 1 1 3 0 2 1 3 0 1 1 2 0 1 1 2 0 1 1 2 0 1 1 2 0 1 1 2 0 1 1 2 0 1 1 2 1 1 0 2 1 2 2 2 0 1 1 2 1 1 1 2 1 1 1 2 1 1 0 2 1 1 2 2 1 1 1 2 1 1 1 2 1 4 4"/>
<path stroke="red" d="M489 97l2 1 1 2 2 1 9 9 1 2 2 1 1 2 3 3 1 2 2 2 1 2 2 2 1 2 5 5 1 3 2 2 1 2 2 2 1 2 2 2 1 2 2 2 1 3 2 2 1 2 2 3 1 2 2 2 1 3 2 2 1 2 2 3 1 2 2 3 1 2 2 3 1 2 2 3 1 2 1 3 2 2 1 3 2 3 1 2 2 3 1 2 2 3 1 3 2 2 1 3 2 3 1 3 2 2"/>
<path stroke="red" d="M580 228l1 3 2 3 1 2 2 3 1 3 2 3 1 2 2 3 1 3 2 3 1 3 2 2 1 3 2 3 1 3 2 3 1 2 2 3 1 3 2 3 2 6 2 3 1 2 2 3 1 3 2 3 1 3 2 3 1 3 2 2 1 3 2 3 1 3 2 3 1 3 2 3 1 3 2 2 1 3 2 3 1 3 2 3 1 3 2 3 1 3 2 2 1 3 2 3 1 3 2 3 1 3 2 3 2 6"/>
<path stroke="red" d="M661 385l2 3 1 2 2 3 1 3 2 3 1 3 2 3 1 3 2 3 1 3 2 2 1 3 2 3 1 3 2 3 1 3 2 3 1 3 2 2 1 3 2 3 1 3 2 3 1 3 2 3 1 3 2 2 1 3 2 3 1 3 2 3 1 3 1 2 2 3 1 3 2 3 1 3 2 3 1 2 2 3 1 3 2 3 1 3 2 2 1 3 2 3 1 3 2 3 1 2 2 3 1 3 2 3 1 2"/>
<path stroke="red" d="M740 535l2 3 1 3 2 3 1 2 2 3 1 3 2 3 1 2 2 3 1 3 2 2 1 3 2 3 1 2 1 3 2 3 1 2 2 3 1 3 2 2 1 3 2 2 1 3 2 3 1 2 2 3 1 3 2 2 1 3 2 2 1 3 2 3 1 2 2 3 1 3 2 2 1 3 2 3 1 2 2 3 1 3 2 2 1 3 2 3 1 2 2 3 1 3"/>
</svg>
