<?xml version="1.0" standalone="yes"?>
<!DOCTYPE svg PUBLIC "-//W3C//DTD SVG 1.1//EN"
 "http://www.w3.org/Graphics/SVG/1.1/DTD/svg11.dtd">
<svg xmlns="http://www.w3.org/2000/svg" version="1.1"
  width="100%" height="100%" viewBox="0 0 1024 768"
  style="fill: none; font-family: Helvetica;
 font: Helvetica;
">

<!-- Creator: NGspice -->

<rect x="0" y="0" width="1024" height="768" fill="black" stroke="none"/>
<text stroke="none" fill="white" font-size="16" x="358" y="752">
frequency
</text>
<text stroke="none" fill="white" font-size="16" x="10" y="16">
ac1: ** sch_path: /foss/designs/analog-circuit-design/priyanka/tb_telescopic_ac.sch
</text>
<path stroke="white" d="M60 720l0 -670"/>
<text stroke="none" fill="white" font-size="16" x="40" y="728">
10^3
</text>
<path stroke="white" stroke-dasharray="1,2" d="M105 720l0 -670M131 720l0 -670M150 720l0 -670M164 720l0 -670M176 720l0 -670M186 720l0 -670M195 720l0 -670M203 720l0 -670"/>
<path stroke="white" d="M210 720l0 -670"/>
<text stroke="none" fill="white" font-size="16" x="190" y="728">
10^4
</text>
<path stroke="white" stroke-dasharray="1,2" d="M255 720l0 -670M281 720l0 -670M300 720l0 -670M314 720l0 -670M326 720l0 -670M336 720l0 -670M345 720l0 -670M353 720l0 -670"/>
<path stroke="white" d="M360 720l0 -670"/>
<text stroke="none" fill="white" font-size="16" x="340" y="728">
10^5
</text>
<path stroke="white" stroke-dasharray="1,2" d="M405 720l0 -670M431 720l0 -670M450 720l0 -670M464 720l0 -670M476 720l0 -670M486 720l0 -670M495 720l0 -670M503 720l0 -670"/>
<path stroke="white" d="M510 720l0 -670"/>
<text stroke="none" fill="white" font-size="16" x="490" y="728">
10^6
</text>
<path stroke="white" stroke-dasharray="1,2" d="M555 720l0 -670M581 720l0 -670M600 720l0 -670M614 720l0 -670M626 720l0 -670M636 720l0 -670M645 720l0 -670M653 720l0 -670"/>
<path stroke="white" d="M660 720l0 -670"/>
<text stroke="none" fill="white" font-size="16" x="640" y="728">
10^7
</text>
<path stroke="white" stroke-dasharray="1,2" d="M705 720l0 -670M731 720l0 -670M750 720l0 -670M764 720l0 -670M776 720l0 -670M786 720l0 -670M795 720l0 -670M803 720l0 -670"/>
<path stroke="white" d="M810 720l0 -670"/>
<text stroke="none" fill="white" font-size="16" x="790" y="728">
10^8
</text>
<path stroke="white" stroke-dasharray="1,2" d="M855 720l0 -670M881 720l0 -670M900 720l0 -670M914 720l0 -670M926 720l0 -670M936 720l0 -670M945 720l0 -670M953 720l0 -670"/>
<path stroke="white" d="M960 720l0 -670"/>
<text stroke="none" fill="white" font-size="16" x="940" y="728">
10^9
</text>
<text stroke="none" fill="white" font-size="16" x="614" y="752">
Hz
</text>
<path stroke="white" stroke-dasharray="1,2" d="M60 720l900 0"/>
<text stroke="none" fill="white" font-size="16" x="-2" y="728">
-100.0
</text>
<path stroke="white" stroke-dasharray="1,2" d="M60 653l900 0"/>
<text stroke="none" fill="white" font-size="16" x="8" y="661">
-90.0
</text>
<path stroke="white" stroke-dasharray="1,2" d="M60 586l900 0"/>
<text stroke="none" fill="white" font-size="16" x="8" y="594">
-80.0
</text>
<path stroke="white" stroke-dasharray="1,2" d="M60 519l900 0"/>
<text stroke="none" fill="white" font-size="16" x="8" y="527">
-70.0
</text>
<path stroke="white" stroke-dasharray="1,2" d="M60 452l900 0"/>
<text stroke="none" fill="white" font-size="16" x="8" y="460">
-60.0
</text>
<path stroke="white" stroke-dasharray="1,2" d="M60 385l900 0"/>
<text stroke="none" fill="white" font-size="16" x="8" y="393">
-50.0
</text>
<path stroke="white" stroke-dasharray="1,2" d="M60 318l900 0"/>
<text stroke="none" fill="white" font-size="16" x="8" y="326">
-40.0
</text>
<path stroke="white" stroke-dasharray="1,2" d="M60 251l900 0"/>
<text stroke="none" fill="white" font-size="16" x="8" y="259">
-30.0
</text>
<path stroke="white" stroke-dasharray="1,2" d="M60 184l900 0"/>
<text stroke="none" fill="white" font-size="16" x="8" y="192">
-20.0
</text>
<path stroke="white" stroke-dasharray="1,2" d="M60 117l900 0"/>
<text stroke="none" fill="white" font-size="16" x="8" y="125">
-10.0
</text>
<path stroke="white" d="M60 50l900 0"/>
<text stroke="none" fill="white" font-size="16" x="28" y="58">
0.0
</text>
<text stroke="none" fill="white" font-size="16" x="10" y="32">
     
</text>
<path stroke="red" d="M450 23l45 0"/>
<text stroke="none" fill="white" font-size="16" x="505" y="32">
180/pi*ph(v_out)
</text>
<path stroke="red" d="M60 50l3 0 1 1 70 0 2 1 32 0 2 1 19 0 2 1 15 0 1 1 12 0 1 1 11 0 1 1 8 0 1 1 6 0 2 1 6 0 1 1 6 0 1 1 5 0 1 1 3 0 2 1 4 0 2 1 3 0 1 1 3 0 2 1 1 0 2 1 3 0 1 1 3 0 2 1 1 0 2 1 1 0 2 1 1 0 2 1 1 0 1 1 2 0 1 1 2 0 1 1 2 0 1 1"/>
<path stroke="red" d="M321 76l2 1 1 0 2 1 1 0 2 1 1 1 2 1 1 0 2 1 1 1 2 0 1 1 2 1 1 1 2 1 1 0 2 1 1 1 2 1 1 1 2 1 1 1 2 1 1 1 2 1 2 2 2 1 1 1 2 1 1 2 2 1 1 1 2 1 4 4 2 1 1 2 2 1 1 2 2 1 1 2 2 1 1 2 2 1 1 2 2 2 1 2 2 1 1 2 2 2 1 2 2 2 1 2 2 2"/>
<path stroke="red" d="M405 142l1 2 2 2 2 4 2 2 1 2 2 3 1 2 2 2 1 3 2 2 1 3 2 2 1 3 2 3 1 2 2 3 1 3 2 3 1 3 2 3 1 3 2 3 1 3 2 3 1 3 2 3 1 4 2 3 1 3 2 4 1 3 2 4 1 4 2 3 1 4 2 4 1 3 1 4 2 4 1 4 2 4 1 4 2 4 1 4 2 4 1 4 2 4 1 4 2 5 1 4 2 4 1 4 2 5"/>
<path stroke="red" d="M485 317l1 4 2 4 1 5 2 4 1 4 2 5 1 4 2 4 1 5 2 4 1 4 2 5 1 4 2 4 1 5 2 4 1 4 1 5 2 4 1 4 2 4 1 4 2 4 1 5 2 4 1 4 2 4 1 4 2 3 1 4 2 4 1 4 2 4 1 3 2 4 1 4 2 3 1 4 2 3 1 4 2 3 1 3 2 4 1 3 2 3 1 3 2 3 1 3 2 3 2 6 2 3 1 3 2 2"/>
<path stroke="red" d="M565 522l1 3 2 3 1 2 2 3 1 2 2 3 1 2 2 2 1 3 2 2 1 2 2 2 1 2 2 2 1 2 2 2 1 2 2 2 1 2 2 2 1 2 2 1 1 2 12 12 1 2 2 1 4 4 2 1 4 4 2 1 1 1 2 1 1 1 2 1 1 1 2 1 1 1 2 1 1 1 2 0 1 1 2 1 1 1 2 1 1 0 2 1 1 1 2 0 1 1 2 1 1 0 2 1 1 1"/>
<path stroke="red" d="M660 616l1 0 2 1 1 0 2 1 1 0 2 1 3 0 1 1 2 0 1 1 3 0 2 1 3 0 1 1 3 0 2 1 4 0 2 1 7 0 2 1 10 0 1 1 20 0 1 1 12 0 2 1 6 0 1 1 3 0 1 1 3 0 2 1 1 0 2 1 1 0 2 1 1 0 2 1 1 1 2 0 1 1 2 1 1 1 2 1 1 1 2 1 1 1 2 1 1 2 2 1 6 6 1 2"/>
<path stroke="red" d="M801 655l5 5 1 2 2 2 1 3"/>
</svg>
