<svg xmlns="http://www.w3.org/2000/svg" xmlns:xlink="http://www.w3.org/1999/xlink" width="1360" height="615" version="1.1">
<style type="text/css">
.l0{
  fill: #000000;
  stroke: #000000;
  stroke-linecap:round;
  stroke-linejoin:round;
  stroke-width: 0.610831;
}
.l1{
  fill: #00ccee;
  stroke: #00ccee;
  stroke-linecap:round;
  stroke-linejoin:round;
  stroke-width: 0.610831;
}
.l2{
  fill: #4f4f4f; fill-opacity: 0.2;
  stroke: #4f4f4f;
  stroke-linecap:round;
  stroke-linejoin:round;
  stroke-width: 0.610831;
}
.l3{
  fill: #cccccc; fill-opacity: 0.5;
  stroke: #cccccc;
  stroke-linecap:round;
  stroke-linejoin:round;
  stroke-width: 0.610831;
}
.l4{
  fill: #88dd00;
  stroke: #88dd00;
  stroke-linecap:round;
  stroke-linejoin:round;
  stroke-width: 0.610831;
}
.l5{
  fill: #bb2200;
  stroke: #bb2200;
  stroke-linecap:round;
  stroke-linejoin:round;
  stroke-width: 0.610831;
}
.l6{
  fill: #00ccee; fill-opacity: 0.5;
  stroke: #00ccee;
  stroke-linecap:round;
  stroke-linejoin:round;
  stroke-width: 0.610831;
}
.l7{
  fill: #ff0000; fill-opacity: 0.5;
  stroke: #ff0000;
  stroke-linecap:round;
  stroke-linejoin:round;
  stroke-width: 0.610831;
}
.l8{
  fill: #ffff00; fill-opacity: 0.5;
  stroke: #ffff00;
  stroke-linecap:round;
  stroke-linejoin:round;
  stroke-width: 0.610831;
}
.l9{
  fill: #ffffff; fill-opacity: 0.5;
  stroke: #ffffff;
  stroke-linecap:round;
  stroke-linejoin:round;
  stroke-width: 0.610831;
}
.l10{
  fill: #ff00ff;
  stroke: #ff00ff;
  stroke-linecap:round;
  stroke-linejoin:round;
  stroke-width: 0.610831;
}
.l11{
  fill: #00ff00; fill-opacity: 0.5;
  stroke: #00ff00;
  stroke-linecap:round;
  stroke-linejoin:round;
  stroke-width: 0.610831;
}
.l12{
  fill: #0000ff; fill-opacity: 0.5;
  stroke: #0000ff;
  stroke-linecap:round;
  stroke-linejoin:round;
  stroke-width: 0.610831;
}
.l13{
  fill: #aaaa00; fill-opacity: 0.5;
  stroke: #aaaa00;
  stroke-linecap:round;
  stroke-linejoin:round;
  stroke-width: 0.610831;
}
.l14{
  fill: #aaccaa; fill-opacity: 0.2;
  stroke: #aaccaa;
  stroke-linecap:round;
  stroke-linejoin:round;
  stroke-width: 0.610831;
}
.l15{
  fill: #ff7777; fill-opacity: 0.5;
  stroke: #ff7777;
  stroke-linecap:round;
  stroke-linejoin:round;
  stroke-width: 0.610831;
}
.l16{
  fill: #bfff81; fill-opacity: 0.5;
  stroke: #bfff81;
  stroke-linecap:round;
  stroke-linejoin:round;
  stroke-width: 0.610831;
}
.l17{
  fill: #00ffcc; fill-opacity: 0.2;
  stroke: #00ffcc;
  stroke-linecap:round;
  stroke-linejoin:round;
  stroke-width: 0.610831;
}
.l18{
  fill: #ce0097; fill-opacity: 0.5;
  stroke: #ce0097;
  stroke-linecap:round;
  stroke-linejoin:round;
  stroke-width: 0.610831;
}
.l19{
  fill: #d2d46b; fill-opacity: 0.2;
  stroke: #d2d46b;
  stroke-linecap:round;
  stroke-linejoin:round;
  stroke-width: 0.610831;
}
.l20{
  fill: #ef6158; fill-opacity: 0.2;
  stroke: #ef6158;
  stroke-linecap:round;
  stroke-linejoin:round;
  stroke-width: 0.610831;
}
.l21{
  fill: #fdb200; fill-opacity: 0.2;
  stroke: #fdb200;
  stroke-linecap:round;
  stroke-linejoin:round;
  stroke-width: 0.610831;
}
text {font-family: Sans-Serif;}
</style>
<rect class="l0" x="0" y="0" width="1360" height="615"/>
<text fill="#00ccee"  xml:space="preserve" font-size="9.70543" transform="translate(708.973, 295.174)" >Vinp</text>
<text fill="#00ccee"  xml:space="preserve" font-size="9.70543" transform="translate(1075.27, 193.369)" >Vout</text>
<text fill="#00ccee"  xml:space="preserve" font-size="9.70543" transform="translate(950.137, 295.174)" >Vinm</text>
<text fill="#00ccee"  xml:space="preserve" font-size="9.70543" transform="translate(187.98, 453.537)" >Vss</text>
<text fill="#00ccee"  xml:space="preserve" font-size="9.70543" transform="translate(361.311, 18.0375)" >Vdd</text>
<text fill="#00ccee"  xml:space="preserve" font-size="9.70543" transform="translate(159.012, 46.3167)" >Ibias1</text>
<text fill="#cccccc"  xml:space="preserve" font-size="11.7642" transform="translate(659.568, 598.924)" >         Telescopic.sch</text>
<text fill="#cccccc"  xml:space="preserve" font-size="11.7642" transform="translate(659.568, 581.956)" >(c) 2024 Priyanka, @HSB</text>
<text fill="#cccccc"  xml:space="preserve" font-size="11.7642" transform="translate(981.552, 581.956)" >2025-02-10  23:11:19</text>
<text fill="#cccccc"  xml:space="preserve" font-size="29.4104" transform="translate(529.484, 597.979)" >SCHEM</text>
<text fill="#cccccc"  xml:space="preserve" font-size="5.88208" transform="translate(827.555, 370.177)" >M19</text>
<text fill="#ff0000"  xml:space="preserve" font-size="4.41156" transform="translate(850.453, 395.707)" >D</text>
<text fill="#ff0000"  xml:space="preserve" font-size="4.41156" transform="translate(850.453, 370.852)" >S</text>
<text fill="#ff0000"  xml:space="preserve" font-size="4.41156" transform="translate(849.039, 380.153)" >B</text>
<text fill="#ff0000"  xml:space="preserve" font-size="4.41156" transform="translate(828.071, 380.153)" >G</text>
<text fill="#cccccc"  xml:space="preserve" font-size="5.88208" transform="translate(854.695, 398.072)" >sg13_lv_nmos</text>
<text fill="#aaaa00"  xml:space="preserve" font-size="5.88208" transform="translate(855.402, 372.298)" >m=1</text>
<text fill="#aaaa00"  xml:space="preserve" font-size="5.88208" transform="translate(855.402, 376.54)" >ng=1</text>
<text fill="#aaaa00"  xml:space="preserve" font-size="5.88208" transform="translate(855.402, 382.196)" >l=2u</text>
<text fill="#aaaa00"  xml:space="preserve" font-size="5.88208" transform="translate(855.402, 387.852)" >w=0.3u</text>
<text fill="#cccccc"  xml:space="preserve" font-size="5.88208" transform="translate(742.718, 279.684)" >M11</text>
<text fill="#ff0000"  xml:space="preserve" font-size="4.41156" transform="translate(765.615, 305.214)" >D</text>
<text fill="#ff0000"  xml:space="preserve" font-size="4.41156" transform="translate(765.615, 280.358)" >S</text>
<text fill="#ff0000"  xml:space="preserve" font-size="4.41156" transform="translate(764.201, 289.66)" >B</text>
<text fill="#ff0000"  xml:space="preserve" font-size="4.41156" transform="translate(743.234, 289.66)" >G</text>
<text fill="#cccccc"  xml:space="preserve" font-size="5.88208" transform="translate(769.857, 307.579)" >sg13_lv_nmos</text>
<text fill="#aaaa00"  xml:space="preserve" font-size="5.88208" transform="translate(770.564, 281.804)" >m=1</text>
<text fill="#aaaa00"  xml:space="preserve" font-size="5.88208" transform="translate(770.564, 286.046)" >ng=1</text>
<text fill="#aaaa00"  xml:space="preserve" font-size="5.88208" transform="translate(770.564, 291.702)" >l=2u</text>
<text fill="#aaaa00"  xml:space="preserve" font-size="5.88208" transform="translate(770.564, 297.358)" >w=0.15u</text>
<text fill="#cccccc"  xml:space="preserve" font-size="5.88208" transform="translate(925.393, 279.684)" >M14</text>
<text fill="#ff0000"  xml:space="preserve" font-size="4.41156" transform="translate(911.495, 305.214)" >D</text>
<text fill="#ff0000"  xml:space="preserve" font-size="4.41156" transform="translate(912.495, 280.358)" >S</text>
<text fill="#ff0000"  xml:space="preserve" font-size="4.41156" transform="translate(913.909, 289.66)" >B</text>
<text fill="#ff0000"  xml:space="preserve" font-size="4.41156" transform="translate(933.877, 289.66)" >G</text>
<text fill="#cccccc"  xml:space="preserve" font-size="5.88208" transform="translate(868.253, 307.579)" >sg13_lv_nmos</text>
<text fill="#aaaa00"  xml:space="preserve" font-size="5.88208" transform="translate(895.546, 281.804)" >m=1</text>
<text fill="#aaaa00"  xml:space="preserve" font-size="5.88208" transform="translate(893.546, 286.046)" >ng=1</text>
<text fill="#aaaa00"  xml:space="preserve" font-size="5.88208" transform="translate(895.546, 291.702)" >l=2u</text>
<text fill="#aaaa00"  xml:space="preserve" font-size="5.88208" transform="translate(882.546, 297.358)" >w=0.15u</text>
<text fill="#cccccc"  xml:space="preserve" font-size="5.88208" transform="translate(895.425, 126.976)" >M20</text>
<text fill="#ff0000"  xml:space="preserve" font-size="4.41156" transform="translate(918.323, 152.506)" >D</text>
<text fill="#ff0000"  xml:space="preserve" font-size="4.41156" transform="translate(918.323, 127.65)" >S</text>
<text fill="#ff0000"  xml:space="preserve" font-size="4.41156" transform="translate(916.909, 136.952)" >B</text>
<text fill="#ff0000"  xml:space="preserve" font-size="4.41156" transform="translate(895.942, 136.952)" >G</text>
<text fill="#cccccc"  xml:space="preserve" font-size="5.88208" transform="translate(922.565, 154.871)" >sg13_lv_pmos</text>
<text fill="#aaaa00"  xml:space="preserve" font-size="5.88208" transform="translate(923.272, 129.097)" >m=1</text>
<text fill="#aaaa00"  xml:space="preserve" font-size="5.88208" transform="translate(923.272, 133.339)" >ng=1</text>
<text fill="#aaaa00"  xml:space="preserve" font-size="5.88208" transform="translate(923.272, 138.994)" >l=0.5u</text>
<text fill="#aaaa00"  xml:space="preserve" font-size="5.88208" transform="translate(923.272, 144.65)" >w=0.16u</text>
<text fill="#cccccc"  xml:space="preserve" font-size="5.88208" transform="translate(772.685, 126.976)" >M25</text>
<text fill="#ff0000"  xml:space="preserve" font-size="4.41156" transform="translate(758.787, 152.506)" >D</text>
<text fill="#ff0000"  xml:space="preserve" font-size="4.41156" transform="translate(759.787, 127.65)" >S</text>
<text fill="#ff0000"  xml:space="preserve" font-size="4.41156" transform="translate(761.201, 136.952)" >B</text>
<text fill="#ff0000"  xml:space="preserve" font-size="4.41156" transform="translate(781.169, 136.952)" >G</text>
<text fill="#cccccc"  xml:space="preserve" font-size="5.88208" transform="translate(715.546, 154.871)" >sg13_lv_pmos</text>
<text fill="#aaaa00"  xml:space="preserve" font-size="5.88208" transform="translate(742.839, 129.097)" >m=1</text>
<text fill="#aaaa00"  xml:space="preserve" font-size="5.88208" transform="translate(740.839, 133.339)" >ng=1</text>
<text fill="#aaaa00"  xml:space="preserve" font-size="5.88208" transform="translate(736.839, 138.994)" >l=0.5u</text>
<text fill="#aaaa00"  xml:space="preserve" font-size="5.88208" transform="translate(729.839, 144.65)" >w=0.16u</text>
<text fill="#cccccc"  xml:space="preserve" font-size="5.88208" transform="translate(1136.97, 364.521)" >M1</text>
<text fill="#ff0000"  xml:space="preserve" font-size="4.41156" transform="translate(1155.87, 390.051)" >D</text>
<text fill="#ff0000"  xml:space="preserve" font-size="4.41156" transform="translate(1155.87, 365.196)" >S</text>
<text fill="#ff0000"  xml:space="preserve" font-size="4.41156" transform="translate(1154.45, 374.498)" >B</text>
<text fill="#ff0000"  xml:space="preserve" font-size="4.41156" transform="translate(1133.49, 374.498)" >G</text>
<text fill="#cccccc"  xml:space="preserve" font-size="5.88208" transform="translate(1160.11, 392.416)" >sg13_lv_nmos</text>
<text fill="#aaaa00"  xml:space="preserve" font-size="5.88208" transform="translate(1160.82, 366.642)" >m=1</text>
<text fill="#aaaa00"  xml:space="preserve" font-size="5.88208" transform="translate(1160.82, 370.884)" >ng=1</text>
<text fill="#aaaa00"  xml:space="preserve" font-size="5.88208" transform="translate(1160.82, 376.54)" >l=2u</text>
<text fill="#aaaa00"  xml:space="preserve" font-size="5.88208" transform="translate(1160.82, 382.196)" >w=0.15u</text>
<text fill="#cccccc"  xml:space="preserve" font-size="5.88208" transform="translate(503.516, 370.177)" >M2</text>
<text fill="#ff0000"  xml:space="preserve" font-size="4.41156" transform="translate(522.414, 395.707)" >D</text>
<text fill="#ff0000"  xml:space="preserve" font-size="4.41156" transform="translate(522.414, 370.852)" >S</text>
<text fill="#ff0000"  xml:space="preserve" font-size="4.41156" transform="translate(521, 380.153)" >B</text>
<text fill="#ff0000"  xml:space="preserve" font-size="4.41156" transform="translate(500.033, 380.153)" >G</text>
<text fill="#cccccc"  xml:space="preserve" font-size="5.88208" transform="translate(526.656, 398.072)" >sg13_lv_nmos</text>
<text fill="#aaaa00"  xml:space="preserve" font-size="5.88208" transform="translate(527.363, 372.298)" >m=1</text>
<text fill="#aaaa00"  xml:space="preserve" font-size="5.88208" transform="translate(527.363, 376.54)" >ng=1</text>
<text fill="#aaaa00"  xml:space="preserve" font-size="5.88208" transform="translate(527.363, 382.196)" >l=2u</text>
<text fill="#aaaa00"  xml:space="preserve" font-size="5.88208" transform="translate(527.363, 387.852)" >w=0.15u</text>
<text fill="#cccccc"  xml:space="preserve" font-size="5.88208" transform="translate(503.516, 228.781)" >M3</text>
<text fill="#ff0000"  xml:space="preserve" font-size="4.41156" transform="translate(522.414, 254.311)" >D</text>
<text fill="#ff0000"  xml:space="preserve" font-size="4.41156" transform="translate(522.414, 229.455)" >S</text>
<text fill="#ff0000"  xml:space="preserve" font-size="4.41156" transform="translate(521, 238.757)" >B</text>
<text fill="#ff0000"  xml:space="preserve" font-size="4.41156" transform="translate(500.033, 238.757)" >G</text>
<text fill="#cccccc"  xml:space="preserve" font-size="5.88208" transform="translate(526.656, 256.676)" >sg13_lv_nmos</text>
<text fill="#aaaa00"  xml:space="preserve" font-size="5.88208" transform="translate(527.363, 230.902)" >m=1</text>
<text fill="#aaaa00"  xml:space="preserve" font-size="5.88208" transform="translate(527.363, 235.144)" >ng=1</text>
<text fill="#aaaa00"  xml:space="preserve" font-size="5.88208" transform="translate(527.363, 240.8)" >l=2u</text>
<text fill="#aaaa00"  xml:space="preserve" font-size="5.88208" transform="translate(527.363, 246.455)" >w=0.15u</text>
<text fill="#cccccc"  xml:space="preserve" font-size="5.88208" transform="translate(899.425, 228.781)" >M4</text>
<text fill="#ff0000"  xml:space="preserve" font-size="4.41156" transform="translate(918.323, 254.311)" >D</text>
<text fill="#ff0000"  xml:space="preserve" font-size="4.41156" transform="translate(918.323, 229.455)" >S</text>
<text fill="#ff0000"  xml:space="preserve" font-size="4.41156" transform="translate(916.909, 238.757)" >B</text>
<text fill="#ff0000"  xml:space="preserve" font-size="4.41156" transform="translate(895.942, 238.757)" >G</text>
<text fill="#cccccc"  xml:space="preserve" font-size="5.88208" transform="translate(922.565, 256.676)" >sg13_lv_nmos</text>
<text fill="#aaaa00"  xml:space="preserve" font-size="5.88208" transform="translate(923.272, 230.902)" >m=1</text>
<text fill="#aaaa00"  xml:space="preserve" font-size="5.88208" transform="translate(923.272, 235.144)" >ng=1</text>
<text fill="#aaaa00"  xml:space="preserve" font-size="5.88208" transform="translate(923.272, 240.8)" >l=2u</text>
<text fill="#aaaa00"  xml:space="preserve" font-size="5.88208" transform="translate(923.272, 246.455)" >w=0.15u</text>
<text fill="#cccccc"  xml:space="preserve" font-size="5.88208" transform="translate(772.685, 228.781)" >M5</text>
<text fill="#ff0000"  xml:space="preserve" font-size="4.41156" transform="translate(758.787, 254.311)" >D</text>
<text fill="#ff0000"  xml:space="preserve" font-size="4.41156" transform="translate(759.787, 229.455)" >S</text>
<text fill="#ff0000"  xml:space="preserve" font-size="4.41156" transform="translate(761.201, 238.757)" >B</text>
<text fill="#ff0000"  xml:space="preserve" font-size="4.41156" transform="translate(781.169, 238.757)" >G</text>
<text fill="#cccccc"  xml:space="preserve" font-size="5.88208" transform="translate(715.546, 256.676)" >sg13_lv_nmos</text>
<text fill="#aaaa00"  xml:space="preserve" font-size="5.88208" transform="translate(742.839, 230.902)" >m=1</text>
<text fill="#aaaa00"  xml:space="preserve" font-size="5.88208" transform="translate(740.839, 235.144)" >ng=1</text>
<text fill="#aaaa00"  xml:space="preserve" font-size="5.88208" transform="translate(742.839, 240.8)" >l=2u</text>
<text fill="#aaaa00"  xml:space="preserve" font-size="5.88208" transform="translate(729.839, 246.455)" >w=0.15u</text>
<text fill="#cccccc"  xml:space="preserve" font-size="5.88208" transform="translate(899.425, 47.794)" >M6</text>
<text fill="#ff0000"  xml:space="preserve" font-size="4.41156" transform="translate(918.323, 73.324)" >D</text>
<text fill="#ff0000"  xml:space="preserve" font-size="4.41156" transform="translate(918.323, 48.4685)" >S</text>
<text fill="#ff0000"  xml:space="preserve" font-size="4.41156" transform="translate(916.909, 57.7705)" >B</text>
<text fill="#ff0000"  xml:space="preserve" font-size="4.41156" transform="translate(895.942, 57.7705)" >G</text>
<text fill="#cccccc"  xml:space="preserve" font-size="5.88208" transform="translate(922.565, 75.6893)" >sg13_lv_pmos</text>
<text fill="#aaaa00"  xml:space="preserve" font-size="5.88208" transform="translate(923.272, 49.9149)" >m=1</text>
<text fill="#aaaa00"  xml:space="preserve" font-size="5.88208" transform="translate(923.272, 54.1568)" >ng=1</text>
<text fill="#aaaa00"  xml:space="preserve" font-size="5.88208" transform="translate(923.272, 59.8127)" >l=0.5u</text>
<text fill="#aaaa00"  xml:space="preserve" font-size="5.88208" transform="translate(923.272, 65.4685)" >w=0.16u</text>
<text fill="#cccccc"  xml:space="preserve" font-size="5.88208" transform="translate(1136.97, 47.794)" >M7</text>
<text fill="#ff0000"  xml:space="preserve" font-size="4.41156" transform="translate(1155.87, 73.324)" >D</text>
<text fill="#ff0000"  xml:space="preserve" font-size="4.41156" transform="translate(1155.87, 48.4685)" >S</text>
<text fill="#ff0000"  xml:space="preserve" font-size="4.41156" transform="translate(1154.45, 57.7705)" >B</text>
<text fill="#ff0000"  xml:space="preserve" font-size="4.41156" transform="translate(1133.49, 57.7705)" >G</text>
<text fill="#cccccc"  xml:space="preserve" font-size="5.88208" transform="translate(1160.11, 75.6893)" >sg13_lv_pmos</text>
<text fill="#aaaa00"  xml:space="preserve" font-size="5.88208" transform="translate(1160.82, 49.9149)" >m=1</text>
<text fill="#aaaa00"  xml:space="preserve" font-size="5.88208" transform="translate(1160.82, 54.1568)" >ng=1</text>
<text fill="#aaaa00"  xml:space="preserve" font-size="5.88208" transform="translate(1160.82, 59.8127)" >l=0.5u</text>
<text fill="#aaaa00"  xml:space="preserve" font-size="5.88208" transform="translate(1160.82, 65.4685)" >w=0.16u</text>
<text fill="#cccccc"  xml:space="preserve" font-size="5.88208" transform="translate(1136.97, 115.664)" >M8</text>
<text fill="#ff0000"  xml:space="preserve" font-size="4.41156" transform="translate(1155.87, 141.194)" >D</text>
<text fill="#ff0000"  xml:space="preserve" font-size="4.41156" transform="translate(1155.87, 116.339)" >S</text>
<text fill="#ff0000"  xml:space="preserve" font-size="4.41156" transform="translate(1154.45, 125.641)" >B</text>
<text fill="#ff0000"  xml:space="preserve" font-size="4.41156" transform="translate(1133.49, 125.641)" >G</text>
<text fill="#cccccc"  xml:space="preserve" font-size="5.88208" transform="translate(1160.11, 143.559)" >sg13_lv_pmos</text>
<text fill="#aaaa00"  xml:space="preserve" font-size="5.88208" transform="translate(1160.82, 117.785)" >m=1</text>
<text fill="#aaaa00"  xml:space="preserve" font-size="5.88208" transform="translate(1160.82, 122.027)" >ng=1</text>
<text fill="#aaaa00"  xml:space="preserve" font-size="5.88208" transform="translate(1160.82, 127.683)" >l=0.5u</text>
<text fill="#aaaa00"  xml:space="preserve" font-size="5.88208" transform="translate(1160.82, 133.339)" >w=0.16u</text>
<text fill="#cccccc"  xml:space="preserve" font-size="5.88208" transform="translate(772.685, 47.794)" >M9</text>
<text fill="#ff0000"  xml:space="preserve" font-size="4.41156" transform="translate(758.787, 73.324)" >D</text>
<text fill="#ff0000"  xml:space="preserve" font-size="4.41156" transform="translate(759.787, 48.4685)" >S</text>
<text fill="#ff0000"  xml:space="preserve" font-size="4.41156" transform="translate(761.201, 57.7705)" >B</text>
<text fill="#ff0000"  xml:space="preserve" font-size="4.41156" transform="translate(781.169, 57.7705)" >G</text>
<text fill="#cccccc"  xml:space="preserve" font-size="5.88208" transform="translate(715.546, 75.6893)" >sg13_lv_pmos</text>
<text fill="#aaaa00"  xml:space="preserve" font-size="5.88208" transform="translate(742.839, 49.9149)" >m=1</text>
<text fill="#aaaa00"  xml:space="preserve" font-size="5.88208" transform="translate(740.839, 54.1568)" >ng=1</text>
<text fill="#aaaa00"  xml:space="preserve" font-size="5.88208" transform="translate(736.839, 59.8127)" >l=0.5u</text>
<text fill="#aaaa00"  xml:space="preserve" font-size="5.88208" transform="translate(729.839, 65.4685)" >w=0.16u</text>
<text fill="#cccccc"  xml:space="preserve" font-size="5.88208" transform="translate(365.464, 370.177)" >M10</text>
<text fill="#ff0000"  xml:space="preserve" font-size="4.41156" transform="translate(351.567, 395.707)" >D</text>
<text fill="#ff0000"  xml:space="preserve" font-size="4.41156" transform="translate(352.567, 370.852)" >S</text>
<text fill="#ff0000"  xml:space="preserve" font-size="4.41156" transform="translate(353.981, 380.153)" >B</text>
<text fill="#ff0000"  xml:space="preserve" font-size="4.41156" transform="translate(373.948, 380.153)" >G</text>
<text fill="#cccccc"  xml:space="preserve" font-size="5.88208" transform="translate(308.325, 398.072)" >sg13_lv_nmos</text>
<text fill="#aaaa00"  xml:space="preserve" font-size="5.88208" transform="translate(335.618, 372.298)" >m=1</text>
<text fill="#aaaa00"  xml:space="preserve" font-size="5.88208" transform="translate(333.618, 376.54)" >ng=1</text>
<text fill="#aaaa00"  xml:space="preserve" font-size="5.88208" transform="translate(335.618, 382.196)" >l=2u</text>
<text fill="#aaaa00"  xml:space="preserve" font-size="5.88208" transform="translate(322.618, 387.852)" >w=0.15u</text>
<text fill="#cccccc"  xml:space="preserve" font-size="5.88208" transform="translate(365.464, 228.781)" >M12</text>
<text fill="#ff0000"  xml:space="preserve" font-size="4.41156" transform="translate(351.567, 254.311)" >D</text>
<text fill="#ff0000"  xml:space="preserve" font-size="4.41156" transform="translate(352.567, 229.455)" >S</text>
<text fill="#ff0000"  xml:space="preserve" font-size="4.41156" transform="translate(353.981, 238.757)" >B</text>
<text fill="#ff0000"  xml:space="preserve" font-size="4.41156" transform="translate(373.948, 238.757)" >G</text>
<text fill="#cccccc"  xml:space="preserve" font-size="5.88208" transform="translate(308.325, 256.676)" >sg13_lv_nmos</text>
<text fill="#aaaa00"  xml:space="preserve" font-size="5.88208" transform="translate(335.618, 230.902)" >m=1</text>
<text fill="#aaaa00"  xml:space="preserve" font-size="5.88208" transform="translate(333.618, 235.144)" >ng=1</text>
<text fill="#aaaa00"  xml:space="preserve" font-size="5.88208" transform="translate(335.618, 240.8)" >l=2u</text>
<text fill="#aaaa00"  xml:space="preserve" font-size="5.88208" transform="translate(322.618, 246.455)" >w=0.15u</text>
<path class="l4" d="M841.969 369.078L841.969 394.529"/>
<path class="l4" d="M849.039 364.836L849.039 371.906"/>
<path class="l4" d="M849.039 391.701L849.039 398.771"/>
<path class="l4" d="M839.141 373.32L839.141 390.287"/>
<path class="l4" d="M841.969 391.701L849.039 391.701"/>
<path class="l4" d="M841.969 371.906L849.039 371.906"/>
<path class="l4" d="M826.416 381.804L838.858 381.804"/>
<path class="l4" d="M844.797 373.32L847.625 371.906L844.797 370.492L844.797 373.32"/>
<path class="l4" d="M757.132 278.585L757.132 304.036"/>
<path class="l4" d="M764.201 274.343L764.201 281.412"/>
<path class="l4" d="M764.201 301.208L764.201 308.278"/>
<path class="l4" d="M754.304 282.826L754.304 299.794"/>
<path class="l4" d="M757.132 301.208L764.201 301.208"/>
<path class="l4" d="M757.132 281.412L764.201 281.412"/>
<path class="l4" d="M741.578 291.31L754.021 291.31"/>
<path class="l4" d="M759.959 282.826L762.787 281.412L759.959 279.998L759.959 282.826"/>
<path class="l4" d="M923.979 278.585L923.979 304.036"/>
<path class="l4" d="M916.909 274.343L916.909 281.412"/>
<path class="l4" d="M916.909 301.208L916.909 308.278"/>
<path class="l4" d="M926.807 282.826L926.807 299.794"/>
<path class="l4" d="M916.909 301.208L923.979 301.208"/>
<path class="l4" d="M916.909 281.412L923.979 281.412"/>
<path class="l4" d="M927.09 291.31L939.532 291.31"/>
<path class="l4" d="M921.151 282.826L918.323 281.412L921.151 279.998L921.151 282.826"/>
<path class="l4" d="M909.839 125.877L909.839 151.328"/>
<path class="l4" d="M916.909 121.635L916.909 128.705"/>
<path class="l4" d="M916.909 148.5L916.909 155.57"/>
<path class="l4" d="M907.011 130.119L907.011 147.086"/>
<path class="l4" d="M909.839 148.5L916.909 148.5"/>
<path class="l4" d="M909.839 128.705L916.909 128.705"/>
<path class="l4" d="M894.286 138.602L906.729 138.602"/>
<path class="l4" d="M912.667 127.291L909.839 128.705L912.667 130.119L912.667 127.291"/>
<path class="l4" d="M771.271 125.877L771.271 151.328"/>
<path class="l4" d="M764.201 121.635L764.201 128.705"/>
<path class="l4" d="M764.201 148.5L764.201 155.57"/>
<path class="l4" d="M774.099 130.119L774.099 147.086"/>
<path class="l4" d="M764.201 148.5L771.271 148.5"/>
<path class="l4" d="M764.201 128.705L771.271 128.705"/>
<path class="l4" d="M774.382 138.602L786.825 138.602"/>
<path class="l4" d="M768.443 127.291L771.271 128.705L768.443 130.119L768.443 127.291"/>
<path class="l4" d="M1147.38 363.422L1147.38 388.873"/>
<path class="l4" d="M1154.45 359.18L1154.45 366.25"/>
<path class="l4" d="M1154.45 386.046L1154.45 393.115"/>
<path class="l4" d="M1144.56 367.664L1144.56 384.632"/>
<path class="l4" d="M1147.38 386.046L1154.45 386.046"/>
<path class="l4" d="M1147.38 366.25L1154.45 366.25"/>
<path class="l4" d="M1131.83 376.148L1144.27 376.148"/>
<path class="l4" d="M1150.21 367.664L1153.04 366.25L1150.21 364.836L1150.21 367.664"/>
<path class="l4" d="M513.93 369.078L513.93 394.529"/>
<path class="l4" d="M521 364.836L521 371.906"/>
<path class="l4" d="M521 391.701L521 398.771"/>
<path class="l4" d="M511.102 373.32L511.102 390.287"/>
<path class="l4" d="M513.93 391.701L521 391.701"/>
<path class="l4" d="M513.93 371.906L521 371.906"/>
<path class="l4" d="M498.377 381.804L510.82 381.804"/>
<path class="l4" d="M516.758 373.32L519.586 371.906L516.758 370.492L516.758 373.32"/>
<path class="l4" d="M513.93 227.682L513.93 253.133"/>
<path class="l4" d="M521 223.44L521 230.51"/>
<path class="l4" d="M521 250.305L521 257.375"/>
<path class="l4" d="M511.102 231.924L511.102 248.891"/>
<path class="l4" d="M513.93 250.305L521 250.305"/>
<path class="l4" d="M513.93 230.51L521 230.51"/>
<path class="l4" d="M498.377 240.408L510.82 240.408"/>
<path class="l4" d="M516.758 231.924L519.586 230.51L516.758 229.096L516.758 231.924"/>
<path class="l4" d="M909.839 227.682L909.839 253.133"/>
<path class="l4" d="M916.909 223.44L916.909 230.51"/>
<path class="l4" d="M916.909 250.305L916.909 257.375"/>
<path class="l4" d="M907.011 231.924L907.011 248.891"/>
<path class="l4" d="M909.839 250.305L916.909 250.305"/>
<path class="l4" d="M909.839 230.51L916.909 230.51"/>
<path class="l4" d="M894.286 240.408L906.729 240.408"/>
<path class="l4" d="M912.667 231.924L915.495 230.51L912.667 229.096L912.667 231.924"/>
<path class="l4" d="M771.271 227.682L771.271 253.133"/>
<path class="l4" d="M764.201 223.44L764.201 230.51"/>
<path class="l4" d="M764.201 250.305L764.201 257.375"/>
<path class="l4" d="M774.099 231.924L774.099 248.891"/>
<path class="l4" d="M764.201 250.305L771.271 250.305"/>
<path class="l4" d="M764.201 230.51L771.271 230.51"/>
<path class="l4" d="M774.382 240.408L786.825 240.408"/>
<path class="l4" d="M768.443 231.924L765.615 230.51L768.443 229.096L768.443 231.924"/>
<path class="l4" d="M909.839 46.695L909.839 72.1462"/>
<path class="l4" d="M916.909 42.4531L916.909 49.5229"/>
<path class="l4" d="M916.909 69.3183L916.909 76.3881"/>
<path class="l4" d="M907.011 50.9368L907.011 67.9044"/>
<path class="l4" d="M909.839 69.3183L916.909 69.3183"/>
<path class="l4" d="M909.839 49.5229L916.909 49.5229"/>
<path class="l4" d="M894.286 59.4206L906.729 59.4206"/>
<path class="l4" d="M912.667 48.1089L909.839 49.5229L912.667 50.9368L912.667 48.1089"/>
<path class="l4" d="M1147.38 46.695L1147.38 72.1462"/>
<path class="l4" d="M1154.45 42.4531L1154.45 49.5229"/>
<path class="l4" d="M1154.45 69.3183L1154.45 76.3881"/>
<path class="l4" d="M1144.56 50.9368L1144.56 67.9044"/>
<path class="l4" d="M1147.38 69.3183L1154.45 69.3183"/>
<path class="l4" d="M1147.38 49.5229L1154.45 49.5229"/>
<path class="l4" d="M1131.83 59.4206L1144.27 59.4206"/>
<path class="l4" d="M1150.21 48.1089L1147.38 49.5229L1150.21 50.9368L1150.21 48.1089"/>
<path class="l4" d="M1147.38 114.565L1147.38 140.016"/>
<path class="l4" d="M1154.45 110.323L1154.45 117.393"/>
<path class="l4" d="M1154.45 137.188L1154.45 144.258"/>
<path class="l4" d="M1144.56 118.807L1144.56 135.774"/>
<path class="l4" d="M1147.38 137.188L1154.45 137.188"/>
<path class="l4" d="M1147.38 117.393L1154.45 117.393"/>
<path class="l4" d="M1131.83 127.291L1144.27 127.291"/>
<path class="l4" d="M1150.21 115.979L1147.38 117.393L1150.21 118.807L1150.21 115.979"/>
<path class="l4" d="M771.271 46.695L771.271 72.1462"/>
<path class="l4" d="M764.201 42.4531L764.201 49.5229"/>
<path class="l4" d="M764.201 69.3183L764.201 76.3881"/>
<path class="l4" d="M774.099 50.9368L774.099 67.9044"/>
<path class="l4" d="M764.201 69.3183L771.271 69.3183"/>
<path class="l4" d="M764.201 49.5229L771.271 49.5229"/>
<path class="l4" d="M774.382 59.4206L786.825 59.4206"/>
<path class="l4" d="M768.443 48.1089L771.271 49.5229L768.443 50.9368L768.443 48.1089"/>
<path class="l4" d="M364.05 369.078L364.05 394.529"/>
<path class="l4" d="M356.981 364.836L356.981 371.906"/>
<path class="l4" d="M356.981 391.701L356.981 398.771"/>
<path class="l4" d="M366.878 373.32L366.878 390.287"/>
<path class="l4" d="M356.981 391.701L364.05 391.701"/>
<path class="l4" d="M356.981 371.906L364.05 371.906"/>
<path class="l4" d="M367.161 381.804L379.604 381.804"/>
<path class="l4" d="M361.223 373.32L358.395 371.906L361.223 370.492L361.223 373.32"/>
<path class="l4" d="M364.05 227.682L364.05 253.133"/>
<path class="l4" d="M356.981 223.44L356.981 230.51"/>
<path class="l4" d="M356.981 250.305L356.981 257.375"/>
<path class="l4" d="M366.878 231.924L366.878 248.891"/>
<path class="l4" d="M356.981 250.305L364.05 250.305"/>
<path class="l4" d="M356.981 230.51L364.05 230.51"/>
<path class="l4" d="M367.161 240.408L379.604 240.408"/>
<path class="l4" d="M361.223 231.924L358.395 230.51L361.223 229.096L361.223 231.924"/>
<path class="l5" d="M521 576.93L520.823 577.107L520.647 577.284L520.47 577.46L520.293 577.637L520.116 577.814L519.94 577.991L519.763 578.167L519.586 578.344L519.409 578.521L519.233 578.698L519.056 578.874L518.879 579.051L518.702 579.228L518.526 579.405L518.349 579.581L518.172 579.758L517.995 579.935L517.819 580.112L517.642 580.288L517.465 580.465L517.288 580.642L517.112 580.819L516.935 580.995L516.758 581.172L516.581 581.349L516.405 581.526L516.228 581.702L516.051 581.879L515.875 582.056L515.698 582.233L515.521 582.409L515.344 582.586L515.344 582.586L515.173 582.763L515.013 582.94L514.864 583.116L514.726 583.293L514.599 583.47L514.483 583.647L514.378 583.823L514.284 584L514.201 584.177L514.129 584.353L514.068 584.53L514.019 584.707L513.98 584.884L513.952 585.06L513.936 585.237L513.93 585.414L513.936 585.591L513.952 585.767L513.98 585.944L514.019 586.121L514.068 586.298L514.129 586.474L514.201 586.651L514.284 586.828L514.378 587.005L514.483 587.181L514.599 587.358L514.726 587.535L514.864 587.712L515.013 587.888L515.173 588.065L515.344 588.242L515.344 588.242L515.522 588.419L515.701 588.598L515.881 588.778L516.062 588.96L516.245 589.143L516.43 589.327L516.615 589.513L516.802 589.7L516.991 589.889L517.181 590.078L517.372 590.27L517.565 590.462L517.759 590.656L517.954 590.852L518.151 591.048L518.349 591.247L518.548 591.446L518.749 591.647L518.952 591.849L519.155 592.053L519.36 592.258L519.567 592.464L519.775 592.672L519.984 592.881L520.194 593.092L520.406 593.304L520.62 593.517L520.834 593.732L521.051 593.948L521.268 594.166L521.487 594.384L521.707 594.605L521.707 594.605L521.927 594.824L522.143 595.041L522.357 595.255L522.569 595.466L522.777 595.675L522.983 595.881L523.186 596.084L523.386 596.284L523.584 596.481L523.778 596.676L523.97 596.868L524.159 597.057L524.346 597.243L524.53 597.427L524.71 597.608L524.889 597.786L525.064 597.961L525.236 598.134L525.406 598.304L525.573 598.471L525.738 598.635L525.899 598.797L526.058 598.956L526.214 599.112L526.367 599.265L526.518 599.415L526.666 599.563L526.811 599.708L526.953 599.85L527.092 599.99L527.229 600.127L527.363 600.261L527.363 600.261L527.491 600.391L527.611 600.517L527.723 600.64L527.827 600.758L527.922 600.872L528.009 600.981L528.088 601.087L528.158 601.188L528.22 601.286L528.274 601.379L528.32 601.468L528.357 601.553L528.386 601.634L528.407 601.71L528.419 601.783L528.423 601.851L528.419 601.915L528.407 601.976L528.386 602.031L528.357 602.083L528.32 602.131L528.274 602.174L528.22 602.214L528.158 602.249L528.088 602.28L528.009 602.307L527.922 602.33L527.827 602.348L527.723 602.363L527.611 602.373L527.491 602.379L527.363 602.381L527.363 602.381L527.23 602.381L527.098 602.381L526.965 602.381L526.833 602.381L526.7 602.381L526.568 602.381L526.435 602.381L526.302 602.381L526.17 602.381L526.037 602.381L525.905 602.381L525.772 602.381L525.64 602.381L525.507 602.381L525.375 602.381L525.242 602.381L525.109 602.381L524.977 602.381L524.844 602.381L524.712 602.381L524.579 602.381L524.447 602.381L524.314 602.381L524.182 602.381L524.049 602.381L523.916 602.381L523.784 602.381L523.651 602.381L523.519 602.381L523.386 602.381L523.254 602.381L523.121 602.381L523.121 602.381L522.989 602.381L522.859 602.381L522.73 602.381L522.602 602.381L522.476 602.381L522.351 602.381L522.227 602.381L522.105 602.381L521.984 602.381L521.865 602.381L521.746 602.381L521.63 602.381L521.514 602.381L521.401 602.381L521.288 602.381L521.177 602.381L521.067 602.381L520.959 602.381L520.852 602.381L520.746 602.381L520.642 602.381L520.539 602.381L520.437 602.381L520.337 602.381L520.239 602.381L520.141 602.381L520.045 602.381L519.951 602.381L519.857 602.381L519.766 602.381L519.675 602.381L519.586 602.381L519.586 602.381L519.498 602.38L519.409 602.376L519.321 602.369L519.233 602.359L519.144 602.347L519.056 602.332L518.968 602.314L518.879 602.293L518.791 602.27L518.702 602.243L518.614 602.214L518.526 602.183L518.437 602.148L518.349 602.111L518.261 602.071L518.172 602.028L518.084 601.982L517.995 601.934L517.907 601.883L517.819 601.829L517.73 601.773L517.642 601.713L517.554 601.651L517.465 601.586L517.377 601.518L517.288 601.448L517.2 601.375L517.112 601.299L517.023 601.22L516.935 601.139L516.847 601.055L516.758 600.968L516.758 600.968L516.67 600.879L516.581 600.791L516.493 600.702L516.405 600.614L516.316 600.526L516.228 600.437L516.14 600.349L516.051 600.261L515.963 600.172L515.875 600.084L515.786 599.995L515.698 599.907L515.609 599.819L515.521 599.73L515.433 599.642L515.344 599.554L515.256 599.465L515.168 599.377L515.079 599.288L514.991 599.2L514.902 599.112L514.814 599.023L514.726 598.935L514.637 598.847L514.549 598.758L514.461 598.67L514.372 598.581L514.284 598.493L514.195 598.405L514.107 598.316L514.019 598.228L513.93 598.14L513.93 598.14L513.841 598.05L513.748 597.957L513.653 597.862L513.555 597.764L513.454 597.663L513.35 597.56L513.244 597.453L513.135 597.344L513.023 597.232L512.909 597.118L512.791 597L512.671 596.88L512.548 596.757L512.422 596.632L512.294 596.503L512.163 596.372L512.029 596.238L511.892 596.102L511.753 595.962L511.611 595.82L511.466 595.675L511.318 595.527L511.167 595.377L511.014 595.223L510.858 595.067L510.699 594.908L510.538 594.747L510.373 594.583L510.206 594.416L510.036 594.246L509.864 594.073L509.688 593.898L509.688 593.898L509.512 593.727L509.335 593.566L509.158 593.417L508.981 593.279L508.805 593.152L508.628 593.036L508.451 592.931L508.274 592.837L508.098 592.754L507.921 592.683L507.744 592.622L507.567 592.572L507.391 592.533L507.214 592.506L507.037 592.489L506.861 592.484L506.684 592.489L506.507 592.506L506.33 592.533L506.154 592.572L505.977 592.622L505.8 592.683L505.623 592.754L505.447 592.837L505.27 592.931L505.093 593.036L504.916 593.152L504.74 593.279L504.563 593.417L504.386 593.566L504.209 593.727L504.033 593.898L504.033 593.898L503.857 594.073L503.685 594.246L503.515 594.416L503.348 594.583L503.183 594.747L503.022 594.908L502.863 595.067L502.707 595.223L502.554 595.377L502.403 595.527L502.255 595.675L502.11 595.82L501.968 595.962L501.829 596.102L501.692 596.238L501.558 596.372L501.427 596.503L501.299 596.632L501.173 596.757L501.05 596.88L500.93 597L500.813 597.118L500.698 597.232L500.586 597.344L500.477 597.453L500.371 597.56L500.267 597.663L500.166 597.764L500.068 597.862L499.973 597.957L499.88 598.05L499.791 598.14L499.791 598.14L499.702 598.228L499.614 598.316L499.526 598.405L499.437 598.493L499.349 598.581L499.26 598.67L499.172 598.758L499.084 598.847L498.995 598.935L498.907 599.023L498.819 599.112L498.73 599.2L498.642 599.288L498.553 599.377L498.465 599.465L498.377 599.554L498.288 599.642L498.2 599.73L498.112 599.819L498.023 599.907L497.935 599.995L497.847 600.084L497.758 600.172L497.67 600.261L497.581 600.349L497.493 600.437L497.405 600.526L497.316 600.614L497.228 600.702L497.14 600.791L497.051 600.879L496.963 600.968L496.963 600.968L496.874 601.055L496.786 601.139L496.698 601.22L496.609 601.299L496.521 601.375L496.433 601.448L496.344 601.518L496.256 601.586L496.167 601.651L496.079 601.713L495.991 601.773L495.902 601.829L495.814 601.883L495.726 601.934L495.637 601.982L495.549 602.028L495.46 602.071L495.372 602.111L495.284 602.148L495.195 602.183L495.107 602.214L495.019 602.243L494.93 602.27L494.842 602.293L494.753 602.314L494.665 602.332L494.577 602.347L494.488 602.359L494.4 602.369L494.312 602.376L494.223 602.38L494.135 602.381L494.135 602.381L494.046 602.381L493.955 602.381L493.864 602.381L493.77 602.381L493.676 602.381L493.58 602.381L493.482 602.381L493.384 602.381L493.284 602.381L493.182 602.381L493.079 602.381L492.975 602.381L492.869 602.381L492.762 602.381L492.654 602.381L492.544 602.381L492.433 602.381L492.32 602.381L492.207 602.381L492.091 602.381L491.975 602.381L491.857 602.381L491.737 602.381L491.616 602.381L491.494 602.381L491.37 602.381L491.246 602.381L491.119 602.381L490.991 602.381L490.862 602.381L490.732 602.381L490.6 602.381L490.6 602.381L490.467 602.381L490.335 602.381L490.202 602.381L490.07 602.381L489.937 602.381L489.805 602.381L489.672 602.381L489.539 602.381L489.407 602.381L489.274 602.381L489.142 602.381L489.009 602.381L488.877 602.381L488.744 602.381L488.612 602.381L488.479 602.381L488.346 602.381L488.214 602.381L488.081 602.381L487.949 602.381L487.816 602.381L487.684 602.381L487.551 602.381L487.419 602.381L487.286 602.381L487.153 602.381L487.021 602.381L486.888 602.381L486.756 602.381L486.623 602.381L486.491 602.381L486.358 602.381L486.358 602.381L486.23 602.379L486.11 602.373L485.998 602.363L485.894 602.348L485.799 602.33L485.712 602.307L485.633 602.28L485.563 602.249L485.501 602.214L485.447 602.174L485.401 602.131L485.364 602.083L485.335 602.031L485.314 601.976L485.302 601.915L485.298 601.851L485.302 601.783L485.314 601.71L485.335 601.634L485.364 601.553L485.401 601.468L485.447 601.379L485.501 601.286L485.563 601.188L485.633 601.087L485.712 600.981L485.799 600.872L485.894 600.758L485.998 600.64L486.11 600.517L486.23 600.391L486.358 600.261L486.358 600.261L486.492 600.127L486.629 599.99L486.768 599.85L486.91 599.708L487.055 599.563L487.203 599.415L487.354 599.265L487.507 599.112L487.663 598.956L487.822 598.797L487.983 598.635L488.148 598.471L488.315 598.304L488.485 598.134L488.657 597.961L488.833 597.786L489.011 597.608L489.192 597.427L489.375 597.243L489.562 597.057L489.751 596.868L489.943 596.676L490.137 596.481L490.335 596.284L490.535 596.084L490.738 595.881L490.944 595.675L491.152 595.466L491.364 595.255L491.578 595.041L491.794 594.824L492.014 594.605L492.014 594.605L492.234 594.384L492.453 594.166L492.671 593.948L492.887 593.732L493.101 593.517L493.315 593.304L493.527 593.092L493.737 592.881L493.946 592.672L494.154 592.464L494.361 592.258L494.566 592.053L494.769 591.849L494.972 591.647L495.173 591.446L495.372 591.247L495.57 591.048L495.767 590.852L495.962 590.656L496.156 590.462L496.349 590.27L496.54 590.078L496.73 589.889L496.919 589.7L497.106 589.513L497.291 589.327L497.476 589.143L497.659 588.96L497.84 588.778L498.021 588.598L498.199 588.419L498.377 588.242L498.377 588.242L498.548 588.065L498.708 587.888L498.857 587.712L498.995 587.535L499.122 587.358L499.238 587.181L499.343 587.005L499.437 586.828L499.52 586.651L499.592 586.474L499.653 586.298L499.702 586.121L499.741 585.944L499.769 585.767L499.785 585.591L499.791 585.414L499.785 585.237L499.769 585.06L499.741 584.884L499.702 584.707L499.653 584.53L499.592 584.353L499.52 584.177L499.437 584L499.343 583.823L499.238 583.647L499.122 583.47L498.995 583.293L498.857 583.116L498.708 582.94L498.548 582.763L498.377 582.586L498.377 582.586L498.199 582.409L498.021 582.23L497.84 582.05L497.659 581.868L497.476 581.685L497.291 581.501L497.106 581.315L496.919 581.128L496.73 580.939L496.54 580.75L496.349 580.558L496.156 580.366L495.962 580.172L495.767 579.976L495.57 579.78L495.372 579.581L495.173 579.382L494.972 579.181L494.769 578.979L494.566 578.775L494.361 578.57L494.154 578.363L493.946 578.156L493.737 577.946L493.527 577.736L493.315 577.524L493.101 577.311L492.887 577.096L492.671 576.88L492.453 576.662L492.234 576.443L492.014 576.223L492.014 576.223L491.794 576.004L491.578 575.787L491.364 575.573L491.152 575.362L490.944 575.153L490.738 574.947L490.535 574.744L490.335 574.544L490.137 574.347L489.943 574.152L489.751 573.96L489.562 573.771L489.375 573.584L489.192 573.401L489.011 573.22L488.833 573.042L488.657 572.866L488.485 572.694L488.315 572.524L488.148 572.357L487.983 572.193L487.822 572.031L487.663 571.872L487.507 571.716L487.354 571.563L487.203 571.412L487.055 571.265L486.91 571.12L486.768 570.977L486.629 570.838L486.492 570.701L486.358 570.567L486.358 570.567L486.23 570.437L486.11 570.311L485.998 570.188L485.894 570.07L485.799 569.956L485.712 569.847L485.633 569.741L485.563 569.639L485.501 569.542L485.447 569.449L485.401 569.36L485.364 569.275L485.335 569.194L485.314 569.118L485.302 569.045L485.298 568.977L485.302 568.912L485.314 568.852L485.335 568.796L485.364 568.745L485.401 568.697L485.447 568.654L485.501 568.614L485.563 568.579L485.633 568.548L485.712 568.521L485.799 568.498L485.894 568.48L485.998 568.465L486.11 568.455L486.23 568.449L486.358 568.446L486.358 568.446L486.491 568.446L486.623 568.446L486.756 568.446L486.888 568.446L487.021 568.446L487.153 568.446L487.286 568.446L487.419 568.446L487.551 568.446L487.684 568.446L487.816 568.446L487.949 568.446L488.081 568.446L488.214 568.446L488.346 568.446L488.479 568.446L488.612 568.446L488.744 568.446L488.877 568.446L489.009 568.446L489.142 568.446L489.274 568.446L489.407 568.446L489.539 568.446L489.672 568.446L489.805 568.446L489.937 568.446L490.07 568.446L490.202 568.446L490.335 568.446L490.467 568.446L490.6 568.446L490.6 568.446L490.732 568.446L490.862 568.446L490.991 568.446L491.119 568.446L491.246 568.446L491.37 568.446L491.494 568.446L491.616 568.446L491.737 568.446L491.857 568.446L491.975 568.446L492.091 568.446L492.207 568.446L492.32 568.446L492.433 568.446L492.544 568.446L492.654 568.446L492.762 568.446L492.869 568.446L492.975 568.446L493.079 568.446L493.182 568.446L493.284 568.446L493.384 568.446L493.482 568.446L493.58 568.446L493.676 568.446L493.77 568.446L493.864 568.446L493.955 568.446L494.046 568.446L494.135 568.446L494.135 568.446L494.223 568.448L494.312 568.452L494.4 568.459L494.488 568.469L494.577 568.481L494.665 568.496L494.753 568.514L494.842 568.535L494.93 568.558L495.019 568.585L495.107 568.614L495.195 568.645L495.284 568.68L495.372 568.717L495.46 568.757L495.549 568.8L495.637 568.845L495.726 568.894L495.814 568.945L495.902 568.999L495.991 569.055L496.079 569.115L496.167 569.177L496.256 569.242L496.344 569.309L496.433 569.38L496.521 569.453L496.609 569.529L496.698 569.608L496.786 569.689L496.874 569.773L496.963 569.86L496.963 569.86L497.051 569.949L497.14 570.037L497.228 570.126L497.316 570.214L497.405 570.302L497.493 570.391L497.581 570.479L497.67 570.567L497.758 570.656L497.847 570.744L497.935 570.832L498.023 570.921L498.112 571.009L498.2 571.098L498.288 571.186L498.377 571.274L498.465 571.363L498.553 571.451L498.642 571.539L498.73 571.628L498.819 571.716L498.907 571.805L498.995 571.893L499.084 571.981L499.172 572.07L499.26 572.158L499.349 572.246L499.437 572.335L499.526 572.423L499.614 572.512L499.702 572.6L499.791 572.688L499.791 572.688L499.88 572.778L499.973 572.871L500.068 572.966L500.166 573.064L500.267 573.165L500.371 573.268L500.477 573.375L500.586 573.484L500.698 573.596L500.813 573.71L500.93 573.827L501.05 573.948L501.173 574.071L501.299 574.196L501.427 574.325L501.558 574.456L501.692 574.59L501.829 574.726L501.968 574.866L502.11 575.008L502.255 575.153L502.403 575.301L502.554 575.451L502.707 575.605L502.863 575.761L503.022 575.919L503.183 576.081L503.348 576.245L503.515 576.412L503.685 576.582L503.857 576.755L504.033 576.93L504.033 576.93L504.209 577.101L504.386 577.262L504.563 577.411L504.74 577.549L504.916 577.676L505.093 577.792L505.27 577.897L505.447 577.991L505.623 578.074L505.8 578.145L505.977 578.206L506.154 578.256L506.33 578.294L506.507 578.322L506.684 578.339L506.861 578.344L507.037 578.339L507.214 578.322L507.391 578.294L507.567 578.256L507.744 578.206L507.921 578.145L508.098 578.074L508.274 577.991L508.451 577.897L508.628 577.792L508.805 577.676L508.981 577.549L509.158 577.411L509.335 577.262L509.512 577.101L509.688 576.93L509.688 576.93L509.864 576.755L510.036 576.582L510.206 576.412L510.373 576.245L510.538 576.081L510.699 575.919L510.858 575.761L511.014 575.605L511.167 575.451L511.318 575.301L511.466 575.153L511.611 575.008L511.753 574.866L511.892 574.726L512.029 574.59L512.163 574.456L512.294 574.325L512.422 574.196L512.548 574.071L512.671 573.948L512.791 573.827L512.909 573.71L513.023 573.596L513.135 573.484L513.244 573.375L513.35 573.268L513.454 573.165L513.555 573.064L513.653 572.966L513.748 572.871L513.841 572.778L513.93 572.688L513.93 572.688L514.019 572.6L514.107 572.512L514.195 572.423L514.284 572.335L514.372 572.246L514.461 572.158L514.549 572.07L514.637 571.981L514.726 571.893L514.814 571.805L514.902 571.716L514.991 571.628L515.079 571.539L515.168 571.451L515.256 571.363L515.344 571.274L515.433 571.186L515.521 571.098L515.609 571.009L515.698 570.921L515.786 570.832L515.875 570.744L515.963 570.656L516.051 570.567L516.14 570.479L516.228 570.391L516.316 570.302L516.405 570.214L516.493 570.126L516.581 570.037L516.67 569.949L516.758 569.86L516.758 569.86L516.847 569.773L516.935 569.689L517.023 569.608L517.112 569.529L517.2 569.453L517.288 569.38L517.377 569.309L517.465 569.242L517.554 569.177L517.642 569.115L517.73 569.055L517.819 568.999L517.907 568.945L517.995 568.894L518.084 568.845L518.172 568.8L518.261 568.757L518.349 568.717L518.437 568.68L518.526 568.645L518.614 568.614L518.702 568.585L518.791 568.558L518.879 568.535L518.968 568.514L519.056 568.496L519.144 568.481L519.233 568.469L519.321 568.459L519.409 568.452L519.498 568.448L519.586 568.446L519.586 568.446L519.675 568.446L519.766 568.446L519.857 568.446L519.951 568.446L520.045 568.446L520.141 568.446L520.239 568.446L520.337 568.446L520.437 568.446L520.539 568.446L520.642 568.446L520.746 568.446L520.852 568.446L520.959 568.446L521.067 568.446L521.177 568.446L521.288 568.446L521.401 568.446L521.514 568.446L521.63 568.446L521.746 568.446L521.865 568.446L521.984 568.446L522.105 568.446L522.227 568.446L522.351 568.446L522.476 568.446L522.602 568.446L522.73 568.446L522.859 568.446L522.989 568.446L523.121 568.446L523.121 568.446L523.254 568.446L523.386 568.446L523.519 568.446L523.651 568.446L523.784 568.446L523.916 568.446L524.049 568.446L524.182 568.446L524.314 568.446L524.447 568.446L524.579 568.446L524.712 568.446L524.844 568.446L524.977 568.446L525.109 568.446L525.242 568.446L525.375 568.446L525.507 568.446L525.64 568.446L525.772 568.446L525.905 568.446L526.037 568.446L526.17 568.446L526.302 568.446L526.435 568.446L526.568 568.446L526.7 568.446L526.833 568.446L526.965 568.446L527.098 568.446L527.23 568.446L527.363 568.446L527.363 568.446L527.491 568.449L527.611 568.455L527.723 568.465L527.827 568.48L527.922 568.498L528.009 568.521L528.088 568.548L528.158 568.579L528.22 568.614L528.274 568.654L528.32 568.697L528.357 568.745L528.386 568.796L528.407 568.852L528.419 568.912L528.423 568.977L528.419 569.045L528.407 569.118L528.386 569.194L528.357 569.275L528.32 569.36L528.274 569.449L528.22 569.542L528.158 569.639L528.088 569.741L528.009 569.847L527.922 569.956L527.827 570.07L527.723 570.188L527.611 570.311L527.491 570.437L527.363 570.567L527.363 570.567L527.228 570.702L527.09 570.841L526.947 570.984L526.8 571.131L526.648 571.282L526.493 571.437L526.334 571.597L526.17 571.76L526.002 571.928L525.83 572.1L525.654 572.276L525.474 572.456L525.29 572.641L525.101 572.829L524.909 573.022L524.712 573.219L524.511 573.419L524.306 573.625L524.097 573.834L523.883 574.047L523.666 574.265L523.444 574.486L523.218 574.712L522.989 574.942L522.754 575.176L522.516 575.414L522.274 575.656L522.027 575.903L521.777 576.153L521.522 576.408L521.263 576.667L521 576.93"/>
<path class="l5" d="M846.211 380.39L849.039 381.804L846.211 383.218L846.211 380.39"/>
<path class="l5" d="M847.625 397.357L850.453 397.357L850.453 400.185L847.625 400.185L847.625 397.357z"/>
<path class="l5" d="M825.002 380.39L827.83 380.39L827.83 383.218L825.002 383.218L825.002 380.39z"/>
<path class="l5" d="M847.625 363.422L850.453 363.422L850.453 366.25L847.625 366.25L847.625 363.422z"/>
<path class="l5" d="M848.995 381.759L849.083 381.759L849.083 381.848L848.995 381.848L848.995 381.759z"/>
<path class="l5" d="M738.75 291.31L741.578 291.31"/>
<path class="l5" d="M738.75 291.31L736.629 288.482L731.68 288.482L733.801 291.31L731.68 294.138L736.629 294.138L738.75 291.31"/>
<path class="l5" d="M740.871 290.603L742.285 290.603L742.285 292.017L740.871 292.017L740.871 290.603z"/>
<path class="l5" d="M1063.96 189.505L1068.91 189.505"/>
<path class="l5" d="M1073.86 189.505L1071.74 186.677L1066.79 186.677L1068.91 189.505L1066.79 192.333L1071.74 192.333L1073.86 189.505"/>
<path class="l5" d="M1063.25 188.798L1064.67 188.798L1064.67 190.212L1063.25 190.212L1063.25 188.798z"/>
<path class="l5" d="M939.532 291.31L942.36 291.31"/>
<path class="l5" d="M942.36 291.31L944.481 288.482L949.43 288.482L947.309 291.31L949.43 294.138L944.481 294.138L942.36 291.31"/>
<path class="l5" d="M938.825 290.603L940.239 290.603L940.239 292.017L938.825 292.017L938.825 290.603z"/>
<path class="l5" d="M212.757 449.674L215.585 449.674"/>
<path class="l5" d="M212.757 449.674L210.636 446.846L205.687 446.846L207.808 449.674L205.687 452.502L210.636 452.502L212.757 449.674"/>
<path class="l5" d="M214.878 448.967L216.292 448.967L216.292 450.381L214.878 450.381L214.878 448.967z"/>
<path class="l5" d="M388.088 14.1739L390.916 14.1739"/>
<path class="l5" d="M388.088 14.1739L385.967 11.3459L381.018 11.3459L383.139 14.1739L381.018 17.0018L385.967 17.0018L388.088 14.1739"/>
<path class="l5" d="M390.209 13.4669L391.623 13.4669L391.623 14.8808L390.209 14.8808L390.209 13.4669z"/>
<path class="l5" d="M195.789 42.4531L198.617 42.4531"/>
<path class="l5" d="M195.789 42.4531L193.668 39.6252L188.719 39.6252L190.84 42.4531L188.719 45.281L193.668 45.281L195.789 42.4531"/>
<path class="l5" d="M197.91 41.7461L199.324 41.7461L199.324 43.1601L197.91 43.1601L197.91 41.7461z"/>
<path class="l5" d="M761.373 289.896L764.201 291.31L761.373 292.724L761.373 289.896"/>
<path class="l5" d="M762.787 306.864L765.615 306.864L765.615 309.692L762.787 309.692L762.787 306.864z"/>
<path class="l5" d="M740.164 289.896L742.992 289.896L742.992 292.724L740.164 292.724L740.164 289.896z"/>
<path class="l5" d="M762.787 272.929L765.615 272.929L765.615 275.757L762.787 275.757L762.787 272.929z"/>
<path class="l5" d="M764.157 291.266L764.246 291.266L764.246 291.354L764.157 291.354L764.157 291.266z"/>
<path class="l5" d="M919.737 289.896L916.909 291.31L919.737 292.724L919.737 289.896"/>
<path class="l5" d="M915.495 306.864L918.323 306.864L918.323 309.692L915.495 309.692L915.495 306.864z"/>
<path class="l5" d="M938.119 289.896L940.946 289.896L940.946 292.724L938.119 292.724L938.119 289.896z"/>
<path class="l5" d="M915.495 272.929L918.323 272.929L918.323 275.757L915.495 275.757L915.495 272.929z"/>
<path class="l5" d="M916.865 291.266L916.953 291.266L916.953 291.354L916.865 291.354L916.865 291.266z"/>
<path class="l5" d="M914.081 137.188L916.909 138.602L914.081 140.016L914.081 137.188"/>
<path class="l5" d="M915.495 154.156L918.323 154.156L918.323 156.984L915.495 156.984L915.495 154.156z"/>
<path class="l5" d="M892.872 137.188L895.7 137.188L895.7 140.016L892.872 140.016L892.872 137.188z"/>
<path class="l5" d="M915.495 120.221L918.323 120.221L918.323 123.049L915.495 123.049L915.495 120.221z"/>
<path class="l5" d="M916.865 138.558L916.953 138.558L916.953 138.647L916.865 138.647L916.865 138.558z"/>
<path class="l5" d="M767.029 137.188L764.201 138.602L767.029 140.016L767.029 137.188"/>
<path class="l5" d="M762.787 154.156L765.615 154.156L765.615 156.984L762.787 156.984L762.787 154.156z"/>
<path class="l5" d="M785.411 137.188L788.239 137.188L788.239 140.016L785.411 140.016L785.411 137.188z"/>
<path class="l5" d="M762.787 120.221L765.615 120.221L765.615 123.049L762.787 123.049L762.787 120.221z"/>
<path class="l5" d="M764.157 138.558L764.246 138.558L764.246 138.647L764.157 138.647L764.157 138.558z"/>
<path class="l5" d="M1151.63 374.734L1154.45 376.148L1151.63 377.562L1151.63 374.734"/>
<path class="l5" d="M1153.04 391.701L1155.87 391.701L1155.87 394.529L1153.04 394.529L1153.04 391.701z"/>
<path class="l5" d="M1130.42 374.734L1133.25 374.734L1133.25 377.562L1130.42 377.562L1130.42 374.734z"/>
<path class="l5" d="M1153.04 357.766L1155.87 357.766L1155.87 360.594L1153.04 360.594L1153.04 357.766z"/>
<path class="l5" d="M1154.41 376.104L1154.5 376.104L1154.5 376.192L1154.41 376.192L1154.41 376.104z"/>
<path class="l5" d="M518.172 380.39L521 381.804L518.172 383.218L518.172 380.39"/>
<path class="l5" d="M519.586 397.357L522.414 397.357L522.414 400.185L519.586 400.185L519.586 397.357z"/>
<path class="l5" d="M496.963 380.39L499.791 380.39L499.791 383.218L496.963 383.218L496.963 380.39z"/>
<path class="l5" d="M519.586 363.422L522.414 363.422L522.414 366.25L519.586 366.25L519.586 363.422z"/>
<path class="l5" d="M520.956 381.759L521.044 381.759L521.044 381.848L520.956 381.848L520.956 381.759z"/>
<path class="l5" d="M518.172 238.994L521 240.408L518.172 241.822L518.172 238.994"/>
<path class="l5" d="M519.586 255.961L522.414 255.961L522.414 258.789L519.586 258.789L519.586 255.961z"/>
<path class="l5" d="M496.963 238.994L499.791 238.994L499.791 241.822L496.963 241.822L496.963 238.994z"/>
<path class="l5" d="M519.586 222.026L522.414 222.026L522.414 224.854L519.586 224.854L519.586 222.026z"/>
<path class="l5" d="M520.956 240.363L521.044 240.363L521.044 240.452L520.956 240.452L520.956 240.363z"/>
<path class="l5" d="M914.081 238.994L916.909 240.408L914.081 241.822L914.081 238.994"/>
<path class="l5" d="M915.495 255.961L918.323 255.961L918.323 258.789L915.495 258.789L915.495 255.961z"/>
<path class="l5" d="M892.872 238.994L895.7 238.994L895.7 241.822L892.872 241.822L892.872 238.994z"/>
<path class="l5" d="M915.495 222.026L918.323 222.026L918.323 224.854L915.495 224.854L915.495 222.026z"/>
<path class="l5" d="M916.865 240.363L916.953 240.363L916.953 240.452L916.865 240.452L916.865 240.363z"/>
<path class="l5" d="M767.029 238.994L764.201 240.408L767.029 241.822L767.029 238.994"/>
<path class="l5" d="M762.787 255.961L765.615 255.961L765.615 258.789L762.787 258.789L762.787 255.961z"/>
<path class="l5" d="M785.411 238.994L788.239 238.994L788.239 241.822L785.411 241.822L785.411 238.994z"/>
<path class="l5" d="M762.787 222.026L765.615 222.026L765.615 224.854L762.787 224.854L762.787 222.026z"/>
<path class="l5" d="M764.157 240.363L764.246 240.363L764.246 240.452L764.157 240.452L764.157 240.363z"/>
<path class="l5" d="M914.081 58.0066L916.909 59.4206L914.081 60.8346L914.081 58.0066"/>
<path class="l5" d="M915.495 74.9742L918.323 74.9742L918.323 77.8021L915.495 77.8021L915.495 74.9742z"/>
<path class="l5" d="M892.872 58.0066L895.7 58.0066L895.7 60.8346L892.872 60.8346L892.872 58.0066z"/>
<path class="l5" d="M915.495 41.0391L918.323 41.0391L918.323 43.867L915.495 43.867L915.495 41.0391z"/>
<path class="l5" d="M916.865 59.3764L916.953 59.3764L916.953 59.4648L916.865 59.4648L916.865 59.3764z"/>
<path class="l5" d="M1151.63 58.0066L1154.45 59.4206L1151.63 60.8346L1151.63 58.0066"/>
<path class="l5" d="M1153.04 74.9742L1155.87 74.9742L1155.87 77.8021L1153.04 77.8021L1153.04 74.9742z"/>
<path class="l5" d="M1130.42 58.0066L1133.25 58.0066L1133.25 60.8346L1130.42 60.8346L1130.42 58.0066z"/>
<path class="l5" d="M1153.04 41.0391L1155.87 41.0391L1155.87 43.867L1153.04 43.867L1153.04 41.0391z"/>
<path class="l5" d="M1154.41 59.3764L1154.5 59.3764L1154.5 59.4648L1154.41 59.4648L1154.41 59.3764z"/>
<path class="l5" d="M1151.63 125.877L1154.45 127.291L1151.63 128.705L1151.63 125.877"/>
<path class="l5" d="M1153.04 142.844L1155.87 142.844L1155.87 145.672L1153.04 145.672L1153.04 142.844z"/>
<path class="l5" d="M1130.42 125.877L1133.25 125.877L1133.25 128.705L1130.42 128.705L1130.42 125.877z"/>
<path class="l5" d="M1153.04 108.909L1155.87 108.909L1155.87 111.737L1153.04 111.737L1153.04 108.909z"/>
<path class="l5" d="M1154.41 127.247L1154.5 127.247L1154.5 127.335L1154.41 127.335L1154.41 127.247z"/>
<path class="l5" d="M767.029 58.0066L764.201 59.4206L767.029 60.8346L767.029 58.0066"/>
<path class="l5" d="M762.787 74.9742L765.615 74.9742L765.615 77.8021L762.787 77.8021L762.787 74.9742z"/>
<path class="l5" d="M785.411 58.0066L788.239 58.0066L788.239 60.8346L785.411 60.8346L785.411 58.0066z"/>
<path class="l5" d="M762.787 41.0391L765.615 41.0391L765.615 43.867L762.787 43.867L762.787 41.0391z"/>
<path class="l5" d="M764.157 59.3764L764.246 59.3764L764.246 59.4648L764.157 59.4648L764.157 59.3764z"/>
<path class="l5" d="M359.809 380.39L356.981 381.804L359.809 383.218L359.809 380.39"/>
<path class="l5" d="M355.567 397.357L358.395 397.357L358.395 400.185L355.567 400.185L355.567 397.357z"/>
<path class="l5" d="M378.19 380.39L381.018 380.39L381.018 383.218L378.19 383.218L378.19 380.39z"/>
<path class="l5" d="M355.567 363.422L358.395 363.422L358.395 366.25L355.567 366.25L355.567 363.422z"/>
<path class="l5" d="M356.937 381.759L357.025 381.759L357.025 381.848L356.937 381.848L356.937 381.759z"/>
<path class="l5" d="M359.809 238.994L356.981 240.408L359.809 241.822L359.809 238.994"/>
<path class="l5" d="M355.567 255.961L358.395 255.961L358.395 258.789L355.567 258.789L355.567 255.961z"/>
<path class="l5" d="M378.19 238.994L381.018 238.994L381.018 241.822L378.19 241.822L378.19 238.994z"/>
<path class="l5" d="M355.567 222.026L358.395 222.026L358.395 224.854L355.567 224.854L355.567 222.026z"/>
<path class="l5" d="M356.937 240.363L357.025 240.363L357.025 240.452L356.937 240.452L356.937 240.363z"/>
<path class="l6" d="M653.912 585.414L1103.55 585.414"/>
<path class="l6" d="M436.162 585.414L472.925 585.414"/>
<path class="l1" d="M764.201 308.278L764.201 330.901"/>
<path class="l1" d="M849.039 330.901L916.909 330.901"/>
<path class="l1" d="M916.909 308.278L916.909 330.901"/>
<path class="l1" d="M849.039 330.901L849.039 364.836"/>
<path class="l1" d="M764.201 330.901L849.039 330.901"/>
<path class="l1" d="M764.201 257.375L764.201 274.343"/>
<path class="l1" d="M916.909 257.375L916.909 274.343"/>
<path class="l1" d="M798.136 449.674L849.039 449.674"/>
<path class="l1" d="M849.039 398.771L849.039 449.674"/>
<path class="l1" d="M916.909 189.505L916.909 223.44"/>
<path class="l1" d="M916.909 189.505L1063.96 189.505"/>
<path class="l1" d="M916.909 155.57L916.909 189.505"/>
<path class="l1" d="M764.201 14.1739L916.909 14.1739"/>
<path class="l1" d="M764.201 14.1739L764.201 42.4531"/>
<path class="l1" d="M718.955 14.1739L764.201 14.1739"/>
<path class="l1" d="M916.909 14.1739L916.909 42.4531"/>
<path class="l1" d="M718.955 138.602L764.201 138.602"/>
<path class="l1" d="M916.909 138.602L956.5 138.602"/>
<path class="l1" d="M916.909 76.3881L916.909 121.635"/>
<path class="l1" d="M916.909 59.4206L956.5 59.4206"/>
<path class="l1" d="M956.5 14.1739L956.5 59.4206"/>
<path class="l1" d="M916.909 14.1739L956.5 14.1739"/>
<path class="l1" d="M956.5 59.4206L956.5 138.602"/>
<path class="l1" d="M718.955 59.4206L764.201 59.4206"/>
<path class="l1" d="M718.955 59.4206L718.955 138.602"/>
<path class="l1" d="M718.955 14.1739L718.955 59.4206"/>
<path class="l1" d="M696.331 240.408L764.201 240.408"/>
<path class="l1" d="M696.331 240.408L696.331 449.674"/>
<path class="l1" d="M916.909 240.408L996.091 240.408"/>
<path class="l1" d="M996.091 240.408L996.091 449.674"/>
<path class="l1" d="M894.286 449.674L996.091 449.674"/>
<path class="l1" d="M849.039 381.804L894.286 381.804"/>
<path class="l1" d="M894.286 381.804L894.286 449.674"/>
<path class="l1" d="M849.039 449.674L894.286 449.674"/>
<path class="l1" d="M798.136 291.31L916.909 291.31"/>
<path class="l1" d="M798.136 291.31L798.136 449.674"/>
<path class="l1" d="M764.201 291.31L798.136 291.31"/>
<path class="l1" d="M696.331 449.674L798.136 449.674"/>
<path class="l1" d="M356.981 449.674L521 449.674"/>
<path class="l1" d="M521 14.1739L718.955 14.1739"/>
<path class="l1" d="M849.039 138.602L894.286 138.602"/>
<path class="l1" d="M1109.21 59.4206L1131.83 59.4206"/>
<path class="l1" d="M1154.45 14.1739L1154.45 42.4531"/>
<path class="l1" d="M956.5 14.1739L1154.45 14.1739"/>
<path class="l1" d="M1154.45 59.4206L1194.05 59.4206"/>
<path class="l1" d="M1194.05 14.1739L1194.05 59.4206"/>
<path class="l1" d="M1154.45 14.1739L1194.05 14.1739"/>
<path class="l1" d="M1154.45 127.291L1194.05 127.291"/>
<path class="l1" d="M1194.05 59.4206L1194.05 127.291"/>
<path class="l1" d="M1154.45 93.3557L1154.45 110.323"/>
<path class="l1" d="M1154.45 393.115L1154.45 449.674"/>
<path class="l1" d="M996.091 449.674L1154.45 449.674"/>
<path class="l1" d="M1154.45 376.148L1188.39 376.148"/>
<path class="l1" d="M1188.39 376.148L1188.39 449.674"/>
<path class="l1" d="M1154.45 449.674L1188.39 449.674"/>
<path class="l1" d="M843.383 240.408L894.286 240.408"/>
<path class="l1" d="M826.416 353.524L826.416 381.804"/>
<path class="l1" d="M826.416 353.524L1103.55 353.524"/>
<path class="l1" d="M1103.55 353.524L1103.55 376.148"/>
<path class="l1" d="M1103.55 376.148L1131.83 376.148"/>
<path class="l1" d="M849.039 115.979L849.039 138.602"/>
<path class="l1" d="M849.039 115.979L1109.21 115.979"/>
<path class="l1" d="M1109.21 115.979L1109.21 127.291"/>
<path class="l1" d="M1109.21 127.291L1131.83 127.291"/>
<path class="l1" d="M498.377 359.18L498.377 381.804"/>
<path class="l1" d="M775.513 359.18L775.513 381.804"/>
<path class="l1" d="M775.513 381.804L826.416 381.804"/>
<path class="l1" d="M521 398.771L521 449.674"/>
<path class="l1" d="M521 381.804L628.461 381.804"/>
<path class="l1" d="M521 449.674L628.461 449.674"/>
<path class="l1" d="M843.383 240.408L843.383 268.687"/>
<path class="l1" d="M786.825 240.408L843.383 240.408"/>
<path class="l1" d="M849.039 59.4206L894.286 59.4206"/>
<path class="l1" d="M1109.21 59.4206L1109.21 93.3557"/>
<path class="l1" d="M1109.21 93.3557L1154.45 93.3557"/>
<path class="l1" d="M1154.45 76.3881L1154.45 93.3557"/>
<path class="l1" d="M1109.21 127.291L1109.21 161.226"/>
<path class="l1" d="M1109.21 161.226L1154.45 161.226"/>
<path class="l1" d="M1154.45 144.258L1154.45 161.226"/>
<path class="l1" d="M849.039 31.1414L849.039 59.4206"/>
<path class="l1" d="M849.039 31.1414L1109.21 31.1414"/>
<path class="l1" d="M1109.21 31.1414L1109.21 59.4206"/>
<path class="l1" d="M198.617 42.4531L356.981 42.4531"/>
<path class="l1" d="M521 240.408L628.461 240.408"/>
<path class="l1" d="M628.461 449.674L696.331 449.674"/>
<path class="l1" d="M628.461 381.804L628.461 449.674"/>
<path class="l1" d="M498.377 240.408L498.377 268.687"/>
<path class="l1" d="M628.461 240.408L628.461 381.804"/>
<path class="l1" d="M498.377 268.687L843.383 268.687"/>
<path class="l1" d="M521 257.375L521 364.836"/>
<path class="l1" d="M498.377 359.18L775.513 359.18"/>
<path class="l1" d="M356.981 398.771L356.981 449.674"/>
<path class="l1" d="M283.455 449.674L356.981 449.674"/>
<path class="l1" d="M283.455 240.408L356.981 240.408"/>
<path class="l1" d="M283.455 381.804L283.455 449.674"/>
<path class="l1" d="M215.585 449.674L283.455 449.674"/>
<path class="l1" d="M283.455 381.804L362.637 381.804"/>
<path class="l1" d="M283.455 240.408L283.455 381.804"/>
<path class="l1" d="M390.916 14.1739L521 14.1739"/>
<path class="l1" d="M407.883 381.804L498.377 381.804"/>
<path class="l1" d="M356.981 319.589L356.981 370.492"/>
<path class="l1" d="M356.981 178.193L356.981 223.44"/>
<path class="l1" d="M407.883 240.408L498.377 240.408"/>
<path class="l1" d="M356.981 319.589L407.883 319.589"/>
<path class="l1" d="M356.981 257.375L356.981 319.589"/>
<path class="l1" d="M407.883 319.589L407.883 381.804"/>
<path class="l1" d="M379.604 381.804L407.883 381.804"/>
<path class="l1" d="M1154.45 161.226L1154.45 359.18"/>
<path class="l1" d="M764.201 155.57L764.201 223.44"/>
<path class="l1" d="M786.825 59.4206L849.039 59.4206"/>
<path class="l1" d="M764.201 76.3881L764.201 121.635"/>
<path class="l1" d="M786.825 138.602L849.039 138.602"/>
<path class="l1" d="M521 14.1739L521 223.44"/>
<path class="l1" d="M356.981 178.193L407.883 178.193"/>
<path class="l1" d="M356.981 42.4531L356.981 178.193"/>
<path class="l1" d="M407.883 178.193L407.883 240.408"/>
<path class="l1" d="M379.604 240.408L407.883 240.408"/>
<circle class="l1" cx="521" cy="14.1739" r="2.09266"/>
<circle class="l1" cx="407.883" cy="240.408" r="2.09266"/>
<circle class="l1" cx="356.981" cy="178.193" r="2.09266"/>
<circle class="l1" cx="356.981" cy="178.193" r="2.09266"/>
<circle class="l1" cx="356.981" cy="319.589" r="2.09266"/>
<circle class="l1" cx="356.981" cy="178.193" r="2.09266"/>
<circle class="l1" cx="283.455" cy="381.804" r="2.09266"/>
<circle class="l1" cx="407.883" cy="381.804" r="2.09266"/>
<circle class="l1" cx="356.981" cy="319.589" r="2.09266"/>
<circle class="l1" cx="356.981" cy="319.589" r="2.09266"/>
<circle class="l1" cx="283.455" cy="381.804" r="2.09266"/>
<circle class="l1" cx="283.455" cy="449.674" r="2.09266"/>
<circle class="l1" cx="283.455" cy="381.804" r="2.09266"/>
<circle class="l1" cx="283.455" cy="449.674" r="2.09266"/>
<circle class="l1" cx="283.455" cy="449.674" r="2.09266"/>
<circle class="l1" cx="356.981" cy="449.674" r="2.09266"/>
<circle class="l1" cx="356.981" cy="449.674" r="2.09266"/>
<circle class="l1" cx="356.981" cy="449.674" r="2.09266"/>
<circle class="l1" cx="521" cy="449.674" r="2.09266"/>
<circle class="l1" cx="521" cy="14.1739" r="2.09266"/>
<circle class="l1" cx="521" cy="14.1739" r="2.09266"/>
<circle class="l1" cx="718.955" cy="14.1739" r="2.09266"/>
<circle class="l1" cx="407.883" cy="240.408" r="2.09266"/>
<circle class="l1" cx="407.883" cy="240.408" r="2.09266"/>
<circle class="l1" cx="407.883" cy="381.804" r="2.09266"/>
<circle class="l1" cx="407.883" cy="381.804" r="2.09266"/>
<circle class="l1" cx="521" cy="449.674" r="2.09266"/>
<circle class="l1" cx="628.461" cy="449.674" r="2.09266"/>
<circle class="l1" cx="628.461" cy="381.804" r="2.09266"/>
<circle class="l1" cx="521" cy="449.674" r="2.09266"/>
<circle class="l1" cx="718.955" cy="14.1739" r="2.09266"/>
<circle class="l1" cx="718.955" cy="59.4206" r="2.09266"/>
<circle class="l1" cx="718.955" cy="14.1739" r="2.09266"/>
<circle class="l1" cx="764.201" cy="14.1739" r="2.09266"/>
<circle class="l1" cx="764.201" cy="14.1739" r="2.09266"/>
<circle class="l1" cx="764.201" cy="14.1739" r="2.09266"/>
<circle class="l1" cx="916.909" cy="14.1739" r="2.09266"/>
<circle class="l1" cx="849.039" cy="138.602" r="2.09266"/>
<circle class="l1" cx="849.039" cy="59.4206" r="2.09266"/>
<circle class="l1" cx="628.461" cy="381.804" r="2.09266"/>
<circle class="l1" cx="843.383" cy="240.408" r="2.09266"/>
<circle class="l1" cx="843.383" cy="240.408" r="2.09266"/>
<circle class="l1" cx="843.383" cy="240.408" r="2.09266"/>
<circle class="l1" cx="696.331" cy="449.674" r="2.09266"/>
<circle class="l1" cx="718.955" cy="59.4206" r="2.09266"/>
<circle class="l1" cx="718.955" cy="59.4206" r="2.09266"/>
<circle class="l1" cx="628.461" cy="381.804" r="2.09266"/>
<circle class="l1" cx="628.461" cy="449.674" r="2.09266"/>
<circle class="l1" cx="628.461" cy="449.674" r="2.09266"/>
<circle class="l1" cx="696.331" cy="449.674" r="2.09266"/>
<circle class="l1" cx="696.331" cy="449.674" r="2.09266"/>
<circle class="l1" cx="798.136" cy="449.674" r="2.09266"/>
<circle class="l1" cx="798.136" cy="291.31" r="2.09266"/>
<circle class="l1" cx="798.136" cy="291.31" r="2.09266"/>
<circle class="l1" cx="798.136" cy="449.674" r="2.09266"/>
<circle class="l1" cx="798.136" cy="291.31" r="2.09266"/>
<circle class="l1" cx="798.136" cy="449.674" r="2.09266"/>
<circle class="l1" cx="849.039" cy="449.674" r="2.09266"/>
<circle class="l1" cx="849.039" cy="330.901" r="2.09266"/>
<circle class="l1" cx="849.039" cy="59.4206" r="2.09266"/>
<circle class="l1" cx="956.5" cy="14.1739" r="2.09266"/>
<circle class="l1" cx="1154.45" cy="14.1739" r="2.09266"/>
<circle class="l1" cx="916.909" cy="14.1739" r="2.09266"/>
<circle class="l1" cx="956.5" cy="14.1739" r="2.09266"/>
<circle class="l1" cx="956.5" cy="14.1739" r="2.09266"/>
<circle class="l1" cx="956.5" cy="59.4206" r="2.09266"/>
<circle class="l1" cx="916.909" cy="14.1739" r="2.09266"/>
<circle class="l1" cx="849.039" cy="59.4206" r="2.09266"/>
<circle class="l1" cx="849.039" cy="138.602" r="2.09266"/>
<circle class="l1" cx="849.039" cy="138.602" r="2.09266"/>
<circle class="l1" cx="996.091" cy="449.674" r="2.09266"/>
<circle class="l1" cx="956.5" cy="59.4206" r="2.09266"/>
<circle class="l1" cx="956.5" cy="59.4206" r="2.09266"/>
<circle class="l1" cx="916.909" cy="189.505" r="2.09266"/>
<circle class="l1" cx="916.909" cy="189.505" r="2.09266"/>
<circle class="l1" cx="916.909" cy="189.505" r="2.09266"/>
<circle class="l1" cx="996.091" cy="449.674" r="2.09266"/>
<circle class="l1" cx="1154.45" cy="449.674" r="2.09266"/>
<circle class="l1" cx="849.039" cy="449.674" r="2.09266"/>
<circle class="l1" cx="894.286" cy="449.674" r="2.09266"/>
<circle class="l1" cx="894.286" cy="449.674" r="2.09266"/>
<circle class="l1" cx="894.286" cy="449.674" r="2.09266"/>
<circle class="l1" cx="996.091" cy="449.674" r="2.09266"/>
<circle class="l1" cx="849.039" cy="449.674" r="2.09266"/>
<circle class="l1" cx="849.039" cy="330.901" r="2.09266"/>
<circle class="l1" cx="849.039" cy="330.901" r="2.09266"/>
<circle class="l1" cx="1109.21" cy="59.4206" r="2.09266"/>
<circle class="l1" cx="1154.45" cy="14.1739" r="2.09266"/>
<circle class="l1" cx="1194.05" cy="59.4206" r="2.09266"/>
<circle class="l1" cx="1154.45" cy="14.1739" r="2.09266"/>
<circle class="l1" cx="1154.45" cy="161.226" r="2.09266"/>
<circle class="l1" cx="1154.45" cy="161.226" r="2.09266"/>
<circle class="l1" cx="1154.45" cy="161.226" r="2.09266"/>
<circle class="l1" cx="1109.21" cy="127.291" r="2.09266"/>
<circle class="l1" cx="1154.45" cy="93.3557" r="2.09266"/>
<circle class="l1" cx="1154.45" cy="93.3557" r="2.09266"/>
<circle class="l1" cx="1109.21" cy="59.4206" r="2.09266"/>
<circle class="l1" cx="1109.21" cy="127.291" r="2.09266"/>
<circle class="l1" cx="1109.21" cy="127.291" r="2.09266"/>
<circle class="l1" cx="1154.45" cy="93.3557" r="2.09266"/>
<circle class="l1" cx="1194.05" cy="59.4206" r="2.09266"/>
<circle class="l1" cx="1194.05" cy="59.4206" r="2.09266"/>
<circle class="l1" cx="1109.21" cy="59.4206" r="2.09266"/>
<circle class="l1" cx="1154.45" cy="449.674" r="2.09266"/>
<circle class="l1" cx="1154.45" cy="449.674" r="2.09266"/>
</svg>
